ISO-10303-21;
HEADER;
FILE_DESCRIPTION (( 'STEP AP214' ),
    '1' );
FILE_NAME ('FiberHolder.STEP',
    '2026-05-04T05:03:37',
    ( '' ),
    ( '' ),
    'SwSTEP 2.0',
    'SolidWorks 2026',
    '' );
FILE_SCHEMA (( 'AUTOMOTIVE_DESIGN' ));
ENDSEC;

DATA;
#1 = LINE ( 'NONE', #462, #756 ) ;
#2 = EDGE_LOOP ( 'NONE', ( #149, #544, #642, #609 ) ) ;
#3 = DIRECTION ( 'NONE',  ( 1.000000000000000000, 0.000000000000000000, -4.931694316920560451E-16 ) ) ;
#4 = CIRCLE ( 'NONE', #496, 0.04527559055118110520 ) ;
#5 = DIRECTION ( 'NONE',  ( 0.000000000000000000, 0.000000000000000000, -1.000000000000000000 ) ) ;
#6 = AXIS2_PLACEMENT_3D ( 'NONE', #326, #557, #621 ) ;
#7 = EDGE_CURVE ( 'NONE', #310, #306, #550, .T. ) ;
#8 = ORIENTED_EDGE ( 'NONE', *, *, #373, .T. ) ;
#9 = CARTESIAN_POINT ( 'NONE',  ( -0.2249999999999999500, 0.000000000000000000, -0.1771653543307089851 ) ) ;
#10 = ORIENTED_EDGE ( 'NONE', *, *, #183, .T. ) ;
#11 = DIRECTION ( 'NONE',  ( 0.000000000000000000, 0.000000000000000000, 1.000000000000000000 ) ) ;
#12 = EDGE_LOOP ( 'NONE', ( #538, #391 ) ) ;
#13 = APPLICATION_PROTOCOL_DEFINITION ( 'draft international standard', 'automotive_design', 1998, #520 ) ;
#14 = DIRECTION ( 'NONE',  ( -1.000000000000000000, 0.000000000000000000, 4.931694316920559465E-16 ) ) ;
#15 = CARTESIAN_POINT ( 'NONE',  ( -0.2249999999999999500, 0.1606299212598425452, 0.000000000000000000 ) ) ;
#16 = ORIENTED_EDGE ( 'NONE', *, *, #602, .F. ) ;
#17 = EDGE_CURVE ( 'NONE', #710, #562, #490, .T. ) ;
#18 = CARTESIAN_POINT ( 'NONE',  ( 0.3210629915748032248, 0.000000000000000000, 0.3858267716535433989 ) ) ;
#19 = VECTOR ( 'NONE', #72, 39.37007874015748143 ) ;
#20 = DIRECTION ( 'NONE',  ( 0.000000000000000000, 0.000000000000000000, 1.000000000000000000 ) ) ;
#21 = AXIS2_PLACEMENT_3D ( 'NONE', #422, #61, #365 ) ;
#22 = AXIS2_PLACEMENT_3D ( 'NONE', #681, #394, #157 ) ;
#23 = VERTEX_POINT ( 'NONE', #384 ) ;
#24 = CARTESIAN_POINT ( 'NONE',  ( -0.5511811023622046335, 0.2000000000000000111, -0.3452755905511811774 ) ) ;
#25 = ORIENTED_EDGE ( 'NONE', *, *, #97, .T. ) ;
#26 = ADVANCED_FACE ( 'NONE', ( #432 ), #30, .F. ) ;
#27 = DIRECTION ( 'NONE',  ( -0.000000000000000000, -1.000000000000000000, -0.000000000000000000 ) ) ;
#28 = CYLINDRICAL_SURFACE ( 'NONE', #140, 0.1771653543307089018 ) ;
#29 = EDGE_CURVE ( 'NONE', #556, #541, #605, .T. ) ;
#30 = CYLINDRICAL_SURFACE ( 'NONE', #337, 0.04527559055118110520 ) ;
#31 = CARTESIAN_POINT ( 'NONE',  ( -0.4527559055118110520, 0.2000000000000000111, -0.2952755905511811885 ) ) ;
#32 = EDGE_LOOP ( 'NONE', ( #535, #471, #656, #418 ) ) ;
#33 = ORIENTED_EDGE ( 'NONE', *, *, #283, .T. ) ;
#34 = CIRCLE ( 'NONE', #166, 0.04527559055118110520 ) ;
#35 = FACE_OUTER_BOUND ( 'NONE', #95, .T. ) ;
#36 = ORIENTED_EDGE ( 'NONE', *, *, #171, .T. ) ;
#37 = ORIENTED_EDGE ( 'NONE', *, *, #17, .T. ) ;
#38 = LINE ( 'NONE', #161, #176 ) ;
#39 = ORIENTED_EDGE ( 'NONE', *, *, #684, .F. ) ;
#40 = LINE ( 'NONE', #676, #577 ) ;
#41 = CARTESIAN_POINT ( 'NONE',  ( 0.5027559055118110409, 0.2000000000000000111, -0.3452755905511811774 ) ) ;
#42 = ADVANCED_FACE ( 'NONE', ( #191 ), #91, .F. ) ;
#43 = ORIENTED_EDGE ( 'NONE', *, *, #97, .F. ) ;
#44 = DIRECTION ( 'NONE',  ( -0.000000000000000000, 1.000000000000000000, -0.000000000000000000 ) ) ;
#45 = AXIS2_PLACEMENT_3D ( 'NONE', #222, #281, #218 ) ;
#46 = CARTESIAN_POINT ( 'NONE',  ( 0.2257874015748031760, 0.000000000000000000, 0.7125984251968504601 ) ) ;
#47 = VECTOR ( 'NONE', #109, 39.37007874015748143 ) ;
#48 = EDGE_LOOP ( 'NONE', ( #314, #663 ) ) ;
#49 = EDGE_CURVE ( 'NONE', #678, #707, #40, .T. ) ;
#50 = LINE ( 'NONE', #443, #401 ) ;
#51 =( LENGTH_UNIT ( ) NAMED_UNIT ( * ) SI_UNIT ( $, .METRE. ) );
#52 = FACE_OUTER_BOUND ( 'NONE', #73, .T. ) ;
#53 = DIRECTION ( 'NONE',  ( -0.000000000000000000, -0.000000000000000000, -1.000000000000000000 ) ) ;
#54 = AXIS2_PLACEMENT_3D ( 'NONE', #297, #71, #542 ) ;
#55 = DIRECTION ( 'NONE',  ( 1.000000000000000000, 0.000000000000000000, 0.000000000000000000 ) ) ;
#56 = CARTESIAN_POINT ( 'NONE',  ( -0.2249999999999999500, 0.2000000000000000111, 0.000000000000000000 ) ) ;
#57 = ORIENTED_EDGE ( 'NONE', *, *, #745, .T. ) ;
#58 = LINE ( 'NONE', #175, #174 ) ;
#59 = FACE_OUTER_BOUND ( 'NONE', #32, .T. ) ;
#60 = ORIENTED_EDGE ( 'NONE', *, *, #456, .T. ) ;
#61 = DIRECTION ( 'NONE',  ( 0.000000000000000000, 0.000000000000000000, -1.000000000000000000 ) ) ;
#62 = CARTESIAN_POINT ( 'NONE',  ( -0.4527559055118110520, 0.2000000000000000111, 0.2952755905511811885 ) ) ;
#63 = ORIENTED_EDGE ( 'NONE', *, *, #750, .F. ) ;
#64 = CARTESIAN_POINT ( 'NONE',  ( 0.3210629915748032248, 0.000000000000000000, 0.4311023622047244763 ) ) ;
#65 = VECTOR ( 'NONE', #85, 39.37007874015748143 ) ;
#66 = VERTEX_POINT ( 'NONE', #270 ) ;
#67 = VECTOR ( 'NONE', #44, 39.37007874015748143 ) ;
#68 = LINE ( 'NONE', #692, #322 ) ;
#69 = AXIS2_PLACEMENT_3D ( 'NONE', #302, #293, #243 ) ;
#70 = ORIENTED_EDGE ( 'NONE', *, *, #509, .F. ) ;
#71 = DIRECTION ( 'NONE',  ( 1.000000000000000000, 0.000000000000000000, 0.000000000000000000 ) ) ;
#72 = DIRECTION ( 'NONE',  ( -0.000000000000000000, -1.000000000000000000, -0.000000000000000000 ) ) ;
#73 = EDGE_LOOP ( 'NONE', ( #395, #737, #581, #259 ) ) ;
#74 = CARTESIAN_POINT ( 'NONE',  ( -0.2249999999999999500, 0.1606299212598425452, 0.000000000000000000 ) ) ;
#75 = ORIENTED_EDGE ( 'NONE', *, *, #107, .F. ) ;
#76 = DIRECTION ( 'NONE',  ( 0.000000000000000000, 0.000000000000000000, 1.000000000000000000 ) ) ;
#77 = EDGE_LOOP ( 'NONE', ( #620, #194, #90, #607 ) ) ;
#78 = DIRECTION ( 'NONE',  ( 0.000000000000000000, 1.000000000000000000, 0.000000000000000000 ) ) ;
#79 = CIRCLE ( 'NONE', #507, 0.1771653543307089851 ) ;
#80 = FACE_BOUND ( 'NONE', #549, .T. ) ;
#81 = VERTEX_POINT ( 'NONE', #96 ) ;
#82 = EDGE_CURVE ( 'NONE', #103, #144, #630, .T. ) ;
#83 = CARTESIAN_POINT ( 'NONE',  ( 0.2250000000000000611, 0.1606299212598425452, 0.1771653543307088186 ) ) ;
#84 = ORIENTED_EDGE ( 'NONE', *, *, #431, .T. ) ;
#85 = DIRECTION ( 'NONE',  ( -0.000000000000000000, -0.000000000000000000, -1.000000000000000000 ) ) ;
#86 = VERTEX_POINT ( 'NONE', #220 ) ;
#87 = ADVANCED_FACE ( 'NONE', ( #52 ), #455, .F. ) ;
#88 = ORIENTED_EDGE ( 'NONE', *, *, #319, .F. ) ;
#89 = CARTESIAN_POINT ( 'NONE',  ( 0.2257874015748031760, 0.2000000000000000111, 0.7125984251968504601 ) ) ;
#90 = ORIENTED_EDGE ( 'NONE', *, *, #277, .F. ) ;
#91 = PLANE ( 'NONE',  #6 ) ;
#92 = AXIS2_PLACEMENT_3D ( 'NONE', #273, #448, #617 ) ;
#93 = VECTOR ( 'NONE', #540, 39.37007874015748143 ) ;
#94 = DIRECTION ( 'NONE',  ( 0.000000000000000000, -1.000000000000000000, 0.000000000000000000 ) ) ;
#95 = EDGE_LOOP ( 'NONE', ( #300, #426, #75, #116 ) ) ;
#96 = CARTESIAN_POINT ( 'NONE',  ( -0.2742125984251967963, 0.2000000000000000111, 0.7125984251968504601 ) ) ;
#97 = EDGE_CURVE ( 'NONE', #146, #207, #749, .T. ) ;
#98 = LINE ( 'NONE', #502, #225 ) ;
#99 = ORIENTED_EDGE ( 'NONE', *, *, #567, .F. ) ;
#100 = DIRECTION ( 'NONE',  ( 0.000000000000000000, -0.000000000000000000, 1.000000000000000000 ) ) ;
#101 = EDGE_CURVE ( 'NONE', #66, #715, #336, .T. ) ;
#102 = CARTESIAN_POINT ( 'NONE',  ( 0.3210629915748032248, 0.2000000000000000111, 0.4311023622047244763 ) ) ;
#103 = VERTEX_POINT ( 'NONE', #217 ) ;
#104 = APPLICATION_CONTEXT ( 'automotive_design' ) ;
#105 = DIRECTION ( 'NONE',  ( -1.000000000000000000, 0.000000000000000000, 0.000000000000000000 ) ) ;
#106 = LINE ( 'NONE', #631, #701 ) ;
#107 = EDGE_CURVE ( 'NONE', #429, #173, #516, .T. ) ;
#108 = ORIENTED_EDGE ( 'NONE', *, *, #254, .T. ) ;
#109 = DIRECTION ( 'NONE',  ( 1.000000000000000000, 0.000000000000000000, 4.931694316920560451E-16 ) ) ;
#110 = DIRECTION ( 'NONE',  ( 0.000000000000000000, 0.000000000000000000, 1.000000000000000000 ) ) ;
#111 = DIRECTION ( 'NONE',  ( -0.000000000000000000, -1.000000000000000000, -0.000000000000000000 ) ) ;
#112 = CARTESIAN_POINT ( 'NONE',  ( 0.4527559055118110520, 0.2000000000000000111, 0.2952755905511811885 ) ) ;
#113 = CARTESIAN_POINT ( 'NONE',  ( 0.2257874015748031760, 0.2000000000000000111, 0.7125984251968504601 ) ) ;
#114 = VECTOR ( 'NONE', #610, 39.37007874015748143 ) ;
#115 = LINE ( 'NONE', #62, #574 ) ;
#116 = ORIENTED_EDGE ( 'NONE', *, *, #319, .T. ) ;
#117 = ADVANCED_FACE ( 'NONE', ( #514, #573, #625 ), #738, .T. ) ;
#118 = DIRECTION ( 'NONE',  ( 0.000000000000000000, 0.000000000000000000, -1.000000000000000000 ) ) ;
#119 = CARTESIAN_POINT ( 'NONE',  ( -0.2742125984251967963, 0.2000000000000000111, 0.7125984251968504601 ) ) ;
#120 = ORIENTED_EDGE ( 'NONE', *, *, #662, .F. ) ;
#121 = EDGE_CURVE ( 'NONE', #173, #316, #451, .T. ) ;
#122 = DIRECTION ( 'NONE',  ( 0.000000000000000000, 1.000000000000000000, 0.000000000000000000 ) ) ;
#123 = DIRECTION ( 'NONE',  ( -0.000000000000000000, -1.000000000000000000, -0.000000000000000000 ) ) ;
#124 = VERTEX_POINT ( 'NONE', #210 ) ;
#125 = AXIS2_PLACEMENT_3D ( 'NONE', #590, #286, #235 ) ;
#126 = LINE ( 'NONE', #694, #212 ) ;
#127 = AXIS2_PLACEMENT_3D ( 'NONE', #24, #730, #134 ) ;
#128 = DIRECTION ( 'NONE',  ( 0.000000000000000000, 0.000000000000000000, 1.000000000000000000 ) ) ;
#129 = AXIS2_PLACEMENT_3D ( 'NONE', #594, #653, #706 ) ;
#130 = ORIENTED_EDGE ( 'NONE', *, *, #633, .F. ) ;
#131 = DIRECTION ( 'NONE',  ( 0.000000000000000000, 1.000000000000000000, 0.000000000000000000 ) ) ;
#132 = FACE_BOUND ( 'NONE', #48, .T. ) ;
#133 = EDGE_LOOP ( 'NONE', ( #158, #255, #355, #445 ) ) ;
#134 = DIRECTION ( 'NONE',  ( 1.000000000000000000, 0.000000000000000000, -0.000000000000000000 ) ) ;
#135 = CARTESIAN_POINT ( 'NONE',  ( -0.5511811023622046335, 0.000000000000000000, -0.3452755905511811774 ) ) ;
#136 = ORIENTED_EDGE ( 'NONE', *, *, #277, .T. ) ;
#137 = UNCERTAINTY_MEASURE_WITH_UNIT (LENGTH_MEASURE( 1.000000000000000082E-05 ), #693, 'distance_accuracy_value', 'NONE');
#138 = DIRECTION ( 'NONE',  ( 0.000000000000000000, 1.000000000000000000, 0.000000000000000000 ) ) ;
#139 = VERTEX_POINT ( 'NONE', #278 ) ;
#140 = AXIS2_PLACEMENT_3D ( 'NONE', #378, #256, #327 ) ;
#141 = VERTEX_POINT ( 'NONE', #213 ) ;
#142 = PLANE ( 'NONE',  #518 ) ;
#143 = ORIENTED_EDGE ( 'NONE', *, *, #704, .F. ) ;
#144 = VERTEX_POINT ( 'NONE', #568 ) ;
#145 = DIRECTION ( 'NONE',  ( -0.000000000000000000, 0.000000000000000000, 1.000000000000000000 ) ) ;
#146 = VERTEX_POINT ( 'NONE', #459 ) ;
#147 = CARTESIAN_POINT ( 'NONE',  ( 0.3210629915748032248, 0.2000000000000000111, 0.3405511811023622659 ) ) ;
#148 = DIRECTION ( 'NONE',  ( 0.000000000000000000, 0.000000000000000000, 1.000000000000000000 ) ) ;
#149 = ORIENTED_EDGE ( 'NONE', *, *, #565, .T. ) ;
#150 = EDGE_CURVE ( 'NONE', #707, #295, #50, .T. ) ;
#151 = CARTESIAN_POINT ( 'NONE',  ( 0.4527559055118110520, 0.1606299212598425452, 0.2952755905511811885 ) ) ;
#152 = VECTOR ( 'NONE', #27, 39.37007874015748143 ) ;
#153 = AXIS2_PLACEMENT_3D ( 'NONE', #519, #760, #128 ) ;
#154 = FACE_OUTER_BOUND ( 'NONE', #650, .T. ) ;
#155 = EDGE_LOOP ( 'NONE', ( #731, #60, #241, #488 ) ) ;
#156 = CARTESIAN_POINT ( 'NONE',  ( 0.2250000000000000333, 0.2000000000000000111, -6.829619984160658046E-17 ) ) ;
#157 = DIRECTION ( 'NONE',  ( -1.000000000000000000, 0.000000000000000000, -4.931694316920559465E-16 ) ) ;
#158 = ORIENTED_EDGE ( 'NONE', *, *, #513, .T. ) ;
#159 = CARTESIAN_POINT ( 'NONE',  ( 0.4527559055118110520, 0.1606299212598425452, 0.2952755905511811885 ) ) ;
#160 = EDGE_CURVE ( 'NONE', #720, #310, #655, .T. ) ;
#161 = CARTESIAN_POINT ( 'NONE',  ( -0.4527559055118110520, 0.1606299212598425452, -0.2952755905511811885 ) ) ;
#162 = EDGE_LOOP ( 'NONE', ( #272, #57, #604, #566 ) ) ;
#163 = PRODUCT_DEFINITION ( 'UNKNOWN', '', #679, #696 ) ;
#164 = FACE_OUTER_BOUND ( 'NONE', #675, .T. ) ;
#165 = CARTESIAN_POINT ( 'NONE',  ( 0.2257874015748031760, 0.2000000000000000111, 0.7125984251968504601 ) ) ;
#166 = AXIS2_PLACEMENT_3D ( 'NONE', #396, #687, #400 ) ;
#167 = CARTESIAN_POINT ( 'NONE',  ( -0.3694881884251968729, 0.2000000000000000111, 0.4311023622047244763 ) ) ;
#168 = DIRECTION ( 'NONE',  ( 0.000000000000000000, 1.000000000000000000, 0.000000000000000000 ) ) ;
#169 = LINE ( 'NONE', #695, #423 ) ;
#170 = CARTESIAN_POINT ( 'NONE',  ( 0.2250000000000000611, 0.2000000000000000111, 0.1771653543307088186 ) ) ;
#171 = EDGE_CURVE ( 'NONE', #645, #722, #755, .T. ) ;
#172 = CARTESIAN_POINT ( 'NONE',  ( -0.4527559055118110520, 0.1606299212598425452, 0.2952755905511811885 ) ) ;
#173 = VERTEX_POINT ( 'NONE', #159 ) ;
#174 = VECTOR ( 'NONE', #3, 39.37007874015748143 ) ;
#175 = CARTESIAN_POINT ( 'NONE',  ( -0.5511811023622046335, 0.2000000000000000111, 0.7125984251968505712 ) ) ;
#176 = VECTOR ( 'NONE', #404, 39.37007874015748143 ) ;
#177 = DIRECTION ( 'NONE',  ( -0.000000000000000000, -1.000000000000000000, -0.000000000000000000 ) ) ;
#178 = ADVANCED_FACE ( 'NONE', ( #164 ), #680, .F. ) ;
#179 = ORIENTED_EDGE ( 'NONE', *, *, #350, .T. ) ;
#180 = LINE ( 'NONE', #170, #470 ) ;
#181 = CARTESIAN_POINT ( 'NONE',  ( -0.4527559055118110520, 0.1606299212598425452, -0.2952755905511811885 ) ) ;
#182 = EDGE_LOOP ( 'NONE', ( #312, #39 ) ) ;
#183 = EDGE_CURVE ( 'NONE', #124, #556, #403, .T. ) ;
#184 = DIRECTION ( 'NONE',  ( -0.000000000000000000, -0.000000000000000000, 1.000000000000000000 ) ) ;
#185 = LINE ( 'NONE', #634, #19 ) ;
#186 = ORIENTED_EDGE ( 'NONE', *, *, #150, .F. ) ;
#187 = AXIS2_PLACEMENT_3D ( 'NONE', #15, #193, #76 ) ;
#188 = PLANE ( 'NONE',  #21 ) ;
#189 = LINE ( 'NONE', #428, #93 ) ;
#190 = VECTOR ( 'NONE', #248, 39.37007874015748143 ) ;
#191 = FACE_OUTER_BOUND ( 'NONE', #591, .T. ) ;
#192 = CARTESIAN_POINT ( 'NONE',  ( -0.2249999999999999223, 0.2000000000000000111, 0.1771653543307089851 ) ) ;
#193 = DIRECTION ( 'NONE',  ( 0.000000000000000000, 1.000000000000000000, 0.000000000000000000 ) ) ;
#194 = ORIENTED_EDGE ( 'NONE', *, *, #567, .T. ) ;
#195 = FACE_OUTER_BOUND ( 'NONE', #411, .T. ) ;
#196 = ORIENTED_EDGE ( 'NONE', *, *, #350, .F. ) ;
#197 = DIRECTION ( 'NONE',  ( -0.000000000000000000, -1.000000000000000000, -0.000000000000000000 ) ) ;
#198 = PLANE ( 'NONE',  #127 ) ;
#199 = ORIENTED_EDGE ( 'NONE', *, *, #602, .T. ) ;
#200 = MECHANICAL_DESIGN_GEOMETRIC_PRESENTATION_REPRESENTATION (  '', ( #714 ), #742 ) ;
#201 = AXIS2_PLACEMENT_3D ( 'NONE', #351, #758, #55 ) ;
#202 = VECTOR ( 'NONE', #724, 39.37007874015748143 ) ;
#203 = ORIENTED_EDGE ( 'NONE', *, *, #283, .F. ) ;
#204 = EDGE_CURVE ( 'NONE', #306, #486, #34, .T. ) ;
#205 = FACE_BOUND ( 'NONE', #182, .T. ) ;
#206 = VERTEX_POINT ( 'NONE', #571 ) ;
#207 = VERTEX_POINT ( 'NONE', #280 ) ;
#208 = DIRECTION ( 'NONE',  ( 0.000000000000000000, 0.000000000000000000, -1.000000000000000000 ) ) ;
#209 = ORIENTED_EDGE ( 'NONE', *, *, #662, .T. ) ;
#210 = CARTESIAN_POINT ( 'NONE',  ( 0.4527559055118110520, 0.1606299212598425452, -0.2952755905511811885 ) ) ;
#211 = VERTEX_POINT ( 'NONE', #167 ) ;
#212 = VECTOR ( 'NONE', #416, 39.37007874015748143 ) ;
#213 = CARTESIAN_POINT ( 'NONE',  ( -0.5511811023622046335, 0.000000000000000000, 0.7125984251968505712 ) ) ;
#214 = CIRCLE ( 'NONE', #666, 0.04527559055118110520 ) ;
#215 = VERTEX_POINT ( 'NONE', #181 ) ;
#216 = EDGE_CURVE ( 'NONE', #439, #339, #224, .T. ) ;
#217 = CARTESIAN_POINT ( 'NONE',  ( -0.2742125984251967963, 0.2000000000000000111, 0.6125984251968504823 ) ) ;
#218 = DIRECTION ( 'NONE',  ( -0.000000000000000000, 0.000000000000000000, -1.000000000000000000 ) ) ;
#219 = VERTEX_POINT ( 'NONE', #469 ) ;
#220 = CARTESIAN_POINT ( 'NONE',  ( -0.4527559055118110520, 0.2000000000000000111, 0.2952755905511811885 ) ) ;
#221 = ADVANCED_FACE ( 'NONE', ( #417 ), #638, .F. ) ;
#222 = CARTESIAN_POINT ( 'NONE',  ( 0.4527559055118110520, 0.1606299212598425452, -0.2952755905511811885 ) ) ;
#223 = DIRECTION ( 'NONE',  ( 0.000000000000000000, 1.000000000000000000, 0.000000000000000000 ) ) ;
#224 = CIRCLE ( 'NONE', #153, 0.04527559055118110520 ) ;
#225 = VECTOR ( 'NONE', #558, 39.37007874015748143 ) ;
#226 = VECTOR ( 'NONE', #683, 39.37007874015748143 ) ;
#227 = DIRECTION ( 'NONE',  ( -0.000000000000000000, -1.000000000000000000, -0.000000000000000000 ) ) ;
#228 = PRODUCT_CONTEXT ( 'NONE', #104, 'mechanical' ) ;
#229 = EDGE_CURVE ( 'NONE', #381, #206, #616, .T. ) ;
#230 = PLANE ( 'NONE',  #54 ) ;
#231 = DIRECTION ( 'NONE',  ( 0.000000000000000000, 0.000000000000000000, -1.000000000000000000 ) ) ;
#232 = EDGE_LOOP ( 'NONE', ( #665, #732, #130, #533 ) ) ;
#233 = LINE ( 'NONE', #643, #740 ) ;
#234 = EDGE_CURVE ( 'NONE', #86, #316, #115, .T. ) ;
#235 = DIRECTION ( 'NONE',  ( 0.000000000000000000, 0.000000000000000000, -1.000000000000000000 ) ) ;
#236 = ORIENTED_EDGE ( 'NONE', *, *, #489, .T. ) ;
#237 = VECTOR ( 'NONE', #253, 39.37007874015748143 ) ;
#238 = CARTESIAN_POINT ( 'NONE',  ( -0.4527559055118110520, 0.1606299212598425452, -0.2952755905511811885 ) ) ;
#239 = EDGE_CURVE ( 'NONE', #81, #139, #673, .T. ) ;
#240 = DIRECTION ( 'NONE',  ( 0.000000000000000000, 0.000000000000000000, -1.000000000000000000 ) ) ;
#241 = ORIENTED_EDGE ( 'NONE', *, *, #452, .F. ) ;
#242 = ADVANCED_FACE ( 'NONE', ( #294 ), #531, .F. ) ;
#243 = DIRECTION ( 'NONE',  ( 0.000000000000000000, -0.000000000000000000, -1.000000000000000000 ) ) ;
#244 = ORIENTED_EDGE ( 'NONE', *, *, #431, .F. ) ;
#245 = FACE_OUTER_BOUND ( 'NONE', #77, .T. ) ;
#246 = ORIENTED_EDGE ( 'NONE', *, *, #29, .F. ) ;
#247 = CARTESIAN_POINT ( 'NONE',  ( -0.4527559055118110520, 0.2000000000000000111, -0.2952755905511811885 ) ) ;
#248 = DIRECTION ( 'NONE',  ( -1.000000000000000000, -0.000000000000000000, -0.000000000000000000 ) ) ;
#249 = EDGE_LOOP ( 'NONE', ( #99, #179, #369, #386 ) ) ;
#250 = CARTESIAN_POINT ( 'NONE',  ( -0.2249999999999999223, 0.000000000000000000, 0.1771653543307089851 ) ) ;
#251 = CARTESIAN_POINT ( 'NONE',  ( 0.2250000000000000333, 0.2000000000000000111, -0.1771653543307089573 ) ) ;
#252 = ORIENTED_EDGE ( 'NONE', *, *, #239, .F. ) ;
#253 = DIRECTION ( 'NONE',  ( -0.000000000000000000, -0.000000000000000000, 1.000000000000000000 ) ) ;
#254 = EDGE_CURVE ( 'NONE', #81, #103, #363, .T. ) ;
#255 = ORIENTED_EDGE ( 'NONE', *, *, #82, .F. ) ;
#256 = DIRECTION ( 'NONE',  ( -0.000000000000000000, -1.000000000000000000, -0.000000000000000000 ) ) ;
#257 = ORIENTED_EDGE ( 'NONE', *, *, #229, .T. ) ;
#258 = ADVANCED_FACE ( 'NONE', ( #245 ), #299, .F. ) ;
#259 = ORIENTED_EDGE ( 'NONE', *, *, #474, .T. ) ;
#260 = FACE_OUTER_BOUND ( 'NONE', #321, .T. ) ;
#261 = EDGE_LOOP ( 'NONE', ( #504, #744, #466, #697, #186, #729, #16, #203 ) ) ;
#262 = AXIS2_PLACEMENT_3D ( 'NONE', #156, #510, #746 ) ;
#263 = AXIS2_PLACEMENT_3D ( 'NONE', #479, #122, #596 ) ;
#264 = ORIENTED_EDGE ( 'NONE', *, *, #317, .F. ) ;
#265 = CARTESIAN_POINT ( 'NONE',  ( -0.4527559055118110520, 0.1606299212598425452, 0.2952755905511811885 ) ) ;
#266 = ORIENTED_EDGE ( 'NONE', *, *, #377, .T. ) ;
#267 = CARTESIAN_POINT ( 'NONE',  ( -0.5511811023622046335, 0.2000000000000000111, -0.3452755905511811774 ) ) ;
#268 = LINE ( 'NONE', #102, #483 ) ;
#269 = ORIENTED_EDGE ( 'NONE', *, *, #456, .F. ) ;
#270 = CARTESIAN_POINT ( 'NONE',  ( 0.2257874015748031760, 0.2000000000000000111, 0.6125984251968504823 ) ) ;
#271 = FILL_AREA_STYLE_COLOUR ( '', #346 ) ;
#272 = ORIENTED_EDGE ( 'NONE', *, *, #588, .T. ) ;
#273 = CARTESIAN_POINT ( 'NONE',  ( 0.2250000000000000333, 0.1606299212598425452, -6.829619984160658046E-17 ) ) ;
#274 = CIRCLE ( 'NONE', #420, 0.04527559055118110520 ) ;
#275 = DIRECTION ( 'NONE',  ( 0.000000000000000000, 0.000000000000000000, 1.000000000000000000 ) ) ;
#276 = ORIENTED_EDGE ( 'NONE', *, *, #317, .T. ) ;
#277 = EDGE_CURVE ( 'NONE', #437, #627, #325, .T. ) ;
#278 = CARTESIAN_POINT ( 'NONE',  ( -0.2742125984251967963, 0.000000000000000000, 0.7125984251968504601 ) ) ;
#279 = LENGTH_MEASURE_WITH_UNIT ( LENGTH_MEASURE( 0.02539999999999999897 ), #51 );
#280 = CARTESIAN_POINT ( 'NONE',  ( 0.5027559055118110409, 0.2000000000000000111, 0.7125984251968505712 ) ) ;
#281 = DIRECTION ( 'NONE',  ( 1.000000000000000000, 0.000000000000000000, -0.000000000000000000 ) ) ;
#282 = DIRECTION ( 'NONE',  ( 0.000000000000000000, 0.000000000000000000, 1.000000000000000000 ) ) ;
#283 = EDGE_CURVE ( 'NONE', #144, #715, #1, .T. ) ;
#284 = AXIS2_PLACEMENT_3D ( 'NONE', #453, #168, #619 ) ;
#285 = CIRCLE ( 'NONE', #187, 0.1771653543307089851 ) ;
#286 = DIRECTION ( 'NONE',  ( -0.000000000000000000, -1.000000000000000000, -0.000000000000000000 ) ) ;
#287 = EDGE_LOOP ( 'NONE', ( #748, #84, #734, #497 ) ) ;
#288 =( LENGTH_UNIT ( ) NAMED_UNIT ( * ) SI_UNIT ( $, .METRE. ) );
#289 = FACE_OUTER_BOUND ( 'NONE', #726, .T. ) ;
#290 = CARTESIAN_POINT ( 'NONE',  ( 0.5027559055118110409, 0.000000000000000000, -0.3452755905511811774 ) ) ;
#291 = ORIENTED_EDGE ( 'NONE', *, *, #101, .F. ) ;
#292 = ADVANCED_FACE ( 'NONE', ( #358 ), #414, .F. ) ;
#293 = DIRECTION ( 'NONE',  ( 0.000000000000000000, -1.000000000000000000, 0.000000000000000000 ) ) ;
#294 = FACE_OUTER_BOUND ( 'NONE', #249, .T. ) ;
#295 = VERTEX_POINT ( 'NONE', #290 ) ;
#296 = VECTOR ( 'NONE', #409, 39.37007874015748143 ) ;
#297 = CARTESIAN_POINT ( 'NONE',  ( -0.5511811023622046335, 0.2000000000000000111, -0.3452755905511811774 ) ) ;
#298 = AXIS2_PLACEMENT_3D ( 'NONE', #752, #223, #100 ) ;
#299 = CYLINDRICAL_SURFACE ( 'NONE', #712, 0.1771653543307089851 ) ;
#300 = ORIENTED_EDGE ( 'NONE', *, *, #234, .T. ) ;
#301 = LINE ( 'NONE', #406, #575 ) ;
#302 = CARTESIAN_POINT ( 'NONE',  ( 0.000000000000000000, 0.000000000000000000, 0.000000000000000000 ) ) ;
#303 = ORIENTED_EDGE ( 'NONE', *, *, #160, .T. ) ;
#304 = CARTESIAN_POINT ( 'NONE',  ( -0.5511811023622046335, 0.2000000000000000111, 0.7125984251968505712 ) ) ;
#305 = CARTESIAN_POINT ( 'NONE',  ( 0.2250000000000000333, 0.1606299212598425452, -6.829619984160658046E-17 ) ) ;
#306 = VERTEX_POINT ( 'NONE', #521 ) ;
#307 = EDGE_CURVE ( 'NONE', #103, #66, #68, .T. ) ;
#308 = AXIS2_PLACEMENT_3D ( 'NONE', #528, #347, #14 ) ;
#309 = CARTESIAN_POINT ( 'NONE',  ( 0.4527559055118110520, 0.2000000000000000111, -0.2952755905511811885 ) ) ;
#310 = VERTEX_POINT ( 'NONE', #465 ) ;
#311 = FACE_OUTER_BOUND ( 'NONE', #442, .T. ) ;
#312 = ORIENTED_EDGE ( 'NONE', *, *, #582, .F. ) ;
#313 = EDGE_CURVE ( 'NONE', #141, #139, #169, .T. ) ;
#314 = ORIENTED_EDGE ( 'NONE', *, *, #633, .T. ) ;
#315 = DIRECTION ( 'NONE',  ( -1.000000000000000000, 0.000000000000000000, 0.000000000000000000 ) ) ;
#316 = VERTEX_POINT ( 'NONE', #112 ) ;
#317 = EDGE_CURVE ( 'NONE', #562, #219, #185, .T. ) ;
#318 = ORIENTED_EDGE ( 'NONE', *, *, #452, .T. ) ;
#319 = EDGE_CURVE ( 'NONE', #429, #86, #405, .T. ) ;
#320 = CARTESIAN_POINT ( 'NONE',  ( -0.3694881884251968729, 0.2000000000000000111, 0.3858267716535433989 ) ) ;
#321 = EDGE_LOOP ( 'NONE', ( #659, #88, #70, #366 ) ) ;
#322 = VECTOR ( 'NONE', #477, 39.37007874015748143 ) ;
#323 = PRESENTATION_LAYER_ASSIGNMENT (  '', '', ( #714 ) ) ;
#324 = AXIS2_PLACEMENT_3D ( 'NONE', #389, #392, #689 ) ;
#325 = CIRCLE ( 'NONE', #129, 0.1771653543307089851 ) ;
#326 = CARTESIAN_POINT ( 'NONE',  ( -0.4527559055118110520, 0.1606299212598425452, -0.2952755905511811885 ) ) ;
#327 = DIRECTION ( 'NONE',  ( 0.000000000000000000, 0.000000000000000000, -1.000000000000000000 ) ) ;
#328 = ORIENTED_EDGE ( 'NONE', *, *, #667, .F. ) ;
#329 = DIRECTION ( 'NONE',  ( -0.000000000000000000, -1.000000000000000000, -0.000000000000000000 ) ) ;
#330 = CARTESIAN_POINT ( 'NONE',  ( 0.2257874015748031760, 0.000000000000000000, 0.6125984251968504823 ) ) ;
#331 = ORIENTED_EDGE ( 'NONE', *, *, #160, .F. ) ;
#332 = CARTESIAN_POINT ( 'NONE',  ( 0.5027559055118110409, 0.2000000000000000111, -0.3452755905511811774 ) ) ;
#333 = SURFACE_STYLE_FILL_AREA ( #390 ) ;
#334 = ORIENTED_EDGE ( 'NONE', *, *, #307, .F. ) ;
#335 = VECTOR ( 'NONE', #461, 39.37007874015748143 ) ;
#336 = LINE ( 'NONE', #632, #743 ) ;
#337 = AXIS2_PLACEMENT_3D ( 'NONE', #501, #197, #598 ) ;
#338 = DIRECTION ( 'NONE',  ( -0.000000000000000000, -1.000000000000000000, -0.000000000000000000 ) ) ;
#339 = VERTEX_POINT ( 'NONE', #348 ) ;
#340 = ADVANCED_FACE ( 'NONE', ( #59 ), #526, .F. ) ;
#341 = CARTESIAN_POINT ( 'NONE',  ( 0.4527559055118110520, 0.1606299212598425452, -0.2952755905511811885 ) ) ;
#342 = CARTESIAN_POINT ( 'NONE',  ( 0.3210629915748032248, 0.2000000000000000111, 0.4311023622047244763 ) ) ;
#343 = CARTESIAN_POINT ( 'NONE',  ( -0.2742125984251967963, 0.2000000000000000111, 0.6125984251968504823 ) ) ;
#344 = DIRECTION ( 'NONE',  ( -0.000000000000000000, -1.000000000000000000, -0.000000000000000000 ) ) ;
#345 = AXIS2_PLACEMENT_3D ( 'NONE', #362, #525, #468 ) ;
#346 = COLOUR_RGB ( '',0.7921568627450980005, 0.8196078431372548767, 0.9333333333333333481 ) ;
#347 = DIRECTION ( 'NONE',  ( -4.931694316920559465E-16, 0.000000000000000000, -1.000000000000000000 ) ) ;
#348 = CARTESIAN_POINT ( 'NONE',  ( -0.3694881884251968729, 0.000000000000000000, 0.3405511811023622659 ) ) ;
#349 = ORIENTED_EDGE ( 'NONE', *, *, #491, .F. ) ;
#350 = EDGE_CURVE ( 'NONE', #522, #23, #285, .T. ) ;
#351 = CARTESIAN_POINT ( 'NONE',  ( 0.000000000000000000, 0.000000000000000000, 0.000000000000000000 ) ) ;
#352 = DIRECTION ( 'NONE',  ( -0.000000000000000000, -1.000000000000000000, -0.000000000000000000 ) ) ;
#353 = EDGE_CURVE ( 'NONE', #372, #339, #189, .T. ) ;
#354 = CARTESIAN_POINT ( 'NONE',  ( -0.2742125984251967963, 0.2000000000000000111, 0.7125984251968504601 ) ) ;
#355 = ORIENTED_EDGE ( 'NONE', *, *, #254, .F. ) ;
#356 = PLANE ( 'NONE',  #308 ) ;
#357 = EDGE_CURVE ( 'NONE', #722, #645, #446, .T. ) ;
#358 = FACE_OUTER_BOUND ( 'NONE', #232, .T. ) ;
#359 = VECTOR ( 'NONE', #5, 39.37007874015748143 ) ;
#360 = EDGE_LOOP ( 'NONE', ( #512, #252, #349, #236 ) ) ;
#361 = AXIS2_PLACEMENT_3D ( 'NONE', #89, #492, #208 ) ;
#362 = CARTESIAN_POINT ( 'NONE',  ( 0.3210629915748032248, 0.2000000000000000111, 0.3858267716535433989 ) ) ;
#363 = LINE ( 'NONE', #119, #359 ) ;
#364 = ORIENTED_EDGE ( 'NONE', *, *, #412, .T. ) ;
#365 = DIRECTION ( 'NONE',  ( -1.000000000000000000, 0.000000000000000000, -0.000000000000000000 ) ) ;
#366 = ORIENTED_EDGE ( 'NONE', *, *, #750, .T. ) ;
#367 = FACE_OUTER_BOUND ( 'NONE', #261, .T. ) ;
#368 = EDGE_CURVE ( 'NONE', #219, #141, #425, .T. ) ;
#369 = ORIENTED_EDGE ( 'NONE', *, *, #641, .T. ) ;
#370 = FACE_BOUND ( 'NONE', #376, .T. ) ;
#371 = FACE_BOUND ( 'NONE', #408, .T. ) ;
#372 = VERTEX_POINT ( 'NONE', #719 ) ;
#373 = EDGE_CURVE ( 'NONE', #722, #206, #543, .T. ) ;
#374 = CARTESIAN_POINT ( 'NONE',  ( -0.5511811023622046335, 0.2000000000000000111, -0.3452755905511811774 ) ) ;
#375 = VECTOR ( 'NONE', #111, 39.37007874015748143 ) ;
#376 = EDGE_LOOP ( 'NONE', ( #595, #331 ) ) ;
#377 = EDGE_CURVE ( 'NONE', #295, #219, #658, .T. ) ;
#378 = CARTESIAN_POINT ( 'NONE',  ( 0.2250000000000000333, 0.2000000000000000111, -6.829619984160658046E-17 ) ) ;
#379 = ORIENTED_EDGE ( 'NONE', *, *, #474, .F. ) ;
#380 = ADVANCED_FACE ( 'NONE', ( #132, #371, #367, #600, #80 ), #597, .T. ) ;
#381 = VERTEX_POINT ( 'NONE', #464 ) ;
#382 = CARTESIAN_POINT ( 'NONE',  ( -0.2249999999999999500, 0.2000000000000000111, -0.1771653543307089851 ) ) ;
#383 = ORIENTED_EDGE ( 'NONE', *, *, #368, .T. ) ;
#384 = CARTESIAN_POINT ( 'NONE',  ( -0.2249999999999999500, 0.1606299212598425452, -0.1771653543307089851 ) ) ;
#385 = FACE_OUTER_BOUND ( 'NONE', #155, .T. ) ;
#386 = ORIENTED_EDGE ( 'NONE', *, *, #723, .F. ) ;
#387 = VECTOR ( 'NONE', #472, 39.37007874015748143 ) ;
#388 = AXIS2_PLACEMENT_3D ( 'NONE', #305, #480, #20 ) ;
#389 = CARTESIAN_POINT ( 'NONE',  ( 0.3210629915748032248, 0.2000000000000000111, 0.3858267716535433989 ) ) ;
#390 = FILL_AREA_STYLE ('',( #271 ) ) ;
#391 = ORIENTED_EDGE ( 'NONE', *, *, #171, .F. ) ;
#392 = DIRECTION ( 'NONE',  ( 0.000000000000000000, 1.000000000000000000, 0.000000000000000000 ) ) ;
#393 = ADVANCED_FACE ( 'NONE', ( #708 ), #356, .F. ) ;
#394 = DIRECTION ( 'NONE',  ( 4.931694316920559465E-16, 0.000000000000000000, -1.000000000000000000 ) ) ;
#395 = ORIENTED_EDGE ( 'NONE', *, *, #150, .T. ) ;
#396 = CARTESIAN_POINT ( 'NONE',  ( 0.3210629915748032248, 0.000000000000000000, 0.3858267716535433989 ) ) ;
#397 = EDGE_CURVE ( 'NONE', #541, #86, #583, .T. ) ;
#398 = PRESENTATION_STYLE_ASSIGNMENT (( #564 ) ) ;
#399 = ORIENTED_EDGE ( 'NONE', *, *, #704, .T. ) ;
#400 = DIRECTION ( 'NONE',  ( 0.000000000000000000, 0.000000000000000000, 1.000000000000000000 ) ) ;
#401 = VECTOR ( 'NONE', #53, 39.37007874015748143 ) ;
#402 = DIRECTION ( 'NONE',  ( -0.000000000000000000, -1.000000000000000000, -0.000000000000000000 ) ) ;
#403 = LINE ( 'NONE', #341, #226 ) ;
#404 = DIRECTION ( 'NONE',  ( -0.000000000000000000, 1.000000000000000000, -0.000000000000000000 ) ) ;
#405 = LINE ( 'NONE', #172, #554 ) ;
#406 = CARTESIAN_POINT ( 'NONE',  ( 0.5027559055118110409, 0.2000000000000000111, 0.7125984251968505712 ) ) ;
#407 = DIRECTION ( 'NONE',  ( -0.000000000000000000, 1.000000000000000000, -0.000000000000000000 ) ) ;
#408 = EDGE_LOOP ( 'NONE', ( #136, #440 ) ) ;
#409 = DIRECTION ( 'NONE',  ( 0.000000000000000000, 0.000000000000000000, 1.000000000000000000 ) ) ;
#410 = DIRECTION ( 'NONE',  ( 0.000000000000000000, 0.000000000000000000, -1.000000000000000000 ) ) ;
#411 = EDGE_LOOP ( 'NONE', ( #108, #482, #364, #25, #686, #37, #553, #506 ) ) ;
#412 = EDGE_CURVE ( 'NONE', #66, #146, #534, .T. ) ;
#413 = LINE ( 'NONE', #647, #508 ) ;
#414 = CYLINDRICAL_SURFACE ( 'NONE', #125, 0.04527559055118110520 ) ;
#415 = ORIENTED_EDGE ( 'NONE', *, *, #397, .F. ) ;
#416 = DIRECTION ( 'NONE',  ( -1.000000000000000000, -0.000000000000000000, -0.000000000000000000 ) ) ;
#417 = FACE_OUTER_BOUND ( 'NONE', #133, .T. ) ;
#418 = ORIENTED_EDGE ( 'NONE', *, *, #216, .F. ) ;
#419 = VECTOR ( 'NONE', #603, 39.37007874015748143 ) ;
#420 = AXIS2_PLACEMENT_3D ( 'NONE', #18, #626, #275 ) ;
#421 = VECTOR ( 'NONE', #612, 39.37007874015748143 ) ;
#422 = CARTESIAN_POINT ( 'NONE',  ( -0.2742125984251967963, 0.2000000000000000111, 0.6125984251968504823 ) ) ;
#423 = VECTOR ( 'NONE', #709, 39.37007874015748143 ) ;
#424 = ADVANCED_FACE ( 'NONE', ( #579 ), #230, .F. ) ;
#425 = LINE ( 'NONE', #485, #613 ) ;
#426 = ORIENTED_EDGE ( 'NONE', *, *, #121, .F. ) ;
#427 = CARTESIAN_POINT ( 'NONE',  ( 0.4527559055118110520, 0.2000000000000000111, -0.2952755905511811885 ) ) ;
#428 = CARTESIAN_POINT ( 'NONE',  ( -0.3694881884251968729, 0.2000000000000000111, 0.3405511811023622659 ) ) ;
#429 = VERTEX_POINT ( 'NONE', #589 ) ;
#430 = CARTESIAN_POINT ( 'NONE',  ( -0.3694881884251968729, 0.000000000000000000, 0.3858267716535433989 ) ) ;
#431 = EDGE_CURVE ( 'NONE', #124, #215, #126, .T. ) ;
#432 = FACE_OUTER_BOUND ( 'NONE', #162, .T. ) ;
#433 = VECTOR ( 'NONE', #636, 39.37007874015748143 ) ;
#434 = LINE ( 'NONE', #546, #237 ) ;
#435 = AXIS2_PLACEMENT_3D ( 'NONE', #725, #315, #438 ) ;
#436 = AXIS2_PLACEMENT_3D ( 'NONE', #332, #105, #282 ) ;
#437 = VERTEX_POINT ( 'NONE', #9 ) ;
#438 = DIRECTION ( 'NONE',  ( 0.000000000000000000, 0.000000000000000000, 1.000000000000000000 ) ) ;
#439 = VERTEX_POINT ( 'NONE', #705 ) ;
#440 = ORIENTED_EDGE ( 'NONE', *, *, #723, .T. ) ;
#441 = CARTESIAN_POINT ( 'NONE',  ( 0.5027559055118110409, 0.2000000000000000111, -0.3452755905511811774 ) ) ;
#442 = EDGE_LOOP ( 'NONE', ( #199, #143, #761, #682 ) ) ;
#443 = CARTESIAN_POINT ( 'NONE',  ( 0.5027559055118110409, 0.000000000000000000, -0.3452755905511811774 ) ) ;
#444 = CARTESIAN_POINT ( 'NONE',  ( -0.2249999999999999500, 0.000000000000000000, 0.000000000000000000 ) ) ;
#445 = ORIENTED_EDGE ( 'NONE', *, *, #239, .T. ) ;
#446 = CIRCLE ( 'NONE', #388, 0.1771653543307089018 ) ;
#447 = EDGE_CURVE ( 'NONE', #23, #522, #79, .T. ) ;
#448 = DIRECTION ( 'NONE',  ( 0.000000000000000000, 1.000000000000000000, 0.000000000000000000 ) ) ;
#449 = PLANE ( 'NONE',  #22 ) ;
#450 = ORIENTED_EDGE ( 'NONE', *, *, #7, .T. ) ;
#451 = LINE ( 'NONE', #151, #67 ) ;
#452 = EDGE_CURVE ( 'NONE', #206, #381, #592, .T. ) ;
#453 = CARTESIAN_POINT ( 'NONE',  ( -0.3694881884251968729, 0.2000000000000000111, 0.3858267716535433989 ) ) ;
#454 = ORIENTED_EDGE ( 'NONE', *, *, #29, .T. ) ;
#455 = PLANE ( 'NONE',  #436 ) ;
#456 = EDGE_CURVE ( 'NONE', #645, #381, #180, .T. ) ;
#457 = CARTESIAN_POINT ( 'NONE',  ( 0.2250000000000000333, 0.1606299212598425452, -0.1771653543307089573 ) ) ;
#458 = CIRCLE ( 'NONE', #532, 0.04527559055118110520 ) ;
#459 = CARTESIAN_POINT ( 'NONE',  ( 0.2257874015748031760, 0.2000000000000000111, 0.7125984251968504601 ) ) ;
#460 = AXIS2_PLACEMENT_3D ( 'NONE', #576, #537, #585 ) ;
#461 = DIRECTION ( 'NONE',  ( 0.000000000000000000, 0.000000000000000000, 1.000000000000000000 ) ) ;
#462 = CARTESIAN_POINT ( 'NONE',  ( -0.2742125984251967963, 0.000000000000000000, 0.6125984251968504823 ) ) ;
#463 = LENGTH_MEASURE_WITH_UNIT ( LENGTH_MEASURE( 0.02539999999999999897 ), #288 );
#464 = CARTESIAN_POINT ( 'NONE',  ( 0.2250000000000000611, 0.000000000000000000, 0.1771653543307088186 ) ) ;
#465 = CARTESIAN_POINT ( 'NONE',  ( 0.3210629915748032248, 0.2000000000000000111, 0.3405511811023622659 ) ) ;
#466 = ORIENTED_EDGE ( 'NONE', *, *, #368, .F. ) ;
#467 = APPLICATION_PROTOCOL_DEFINITION ( 'draft international standard', 'automotive_design', 1998, #104 ) ;
#468 = DIRECTION ( 'NONE',  ( 0.000000000000000000, 0.000000000000000000, -1.000000000000000000 ) ) ;
#469 = CARTESIAN_POINT ( 'NONE',  ( -0.5511811023622046335, 0.000000000000000000, -0.3452755905511811774 ) ) ;
#470 = VECTOR ( 'NONE', #352, 39.37007874015748143 ) ;
#471 = ORIENTED_EDGE ( 'NONE', *, *, #684, .T. ) ;
#472 = DIRECTION ( 'NONE',  ( 0.000000000000000000, 0.000000000000000000, 1.000000000000000000 ) ) ;
#473 = CARTESIAN_POINT ( 'NONE',  ( -0.2249999999999999500, 0.2000000000000000111, 0.000000000000000000 ) ) ;
#474 = EDGE_CURVE ( 'NONE', #207, #707, #301, .T. ) ;
#475 = EDGE_LOOP ( 'NONE', ( #318, #257 ) ) ;
#476 = DIRECTION ( 'NONE',  ( 0.000000000000000000, 0.000000000000000000, 1.000000000000000000 ) ) ;
#477 = DIRECTION ( 'NONE',  ( 1.000000000000000000, 0.000000000000000000, 0.000000000000000000 ) ) ;
#478 = ORIENTED_EDGE ( 'NONE', *, *, #204, .T. ) ;
#479 = CARTESIAN_POINT ( 'NONE',  ( 0.2250000000000000333, 0.000000000000000000, -6.829619984160658046E-17 ) ) ;
#480 = DIRECTION ( 'NONE',  ( 0.000000000000000000, 1.000000000000000000, 0.000000000000000000 ) ) ;
#481 = VECTOR ( 'NONE', #184, 39.37007874015748143 ) ;
#482 = ORIENTED_EDGE ( 'NONE', *, *, #307, .T. ) ;
#483 = VECTOR ( 'NONE', #685, 39.37007874015748143 ) ;
#484 = LINE ( 'NONE', #441, #728 ) ;
#485 = CARTESIAN_POINT ( 'NONE',  ( -0.5511811023622046335, 0.000000000000000000, -0.3452755905511811774 ) ) ;
#486 = VERTEX_POINT ( 'NONE', #64 ) ;
#487 = LINE ( 'NONE', #192, #419 ) ;
#488 = ORIENTED_EDGE ( 'NONE', *, *, #373, .F. ) ;
#489 = EDGE_CURVE ( 'NONE', #498, #141, #657, .T. ) ;
#490 = LINE ( 'NONE', #267, #202 ) ;
#491 = EDGE_CURVE ( 'NONE', #498, #81, #58, .T. ) ;
#492 = DIRECTION ( 'NONE',  ( 1.000000000000000000, -0.000000000000000000, 0.000000000000000000 ) ) ;
#493 = CARTESIAN_POINT ( 'NONE',  ( -0.4527559055118110520, 0.2000000000000000111, -0.2952755905511811885 ) ) ;
#494 = ADVANCED_FACE ( 'NONE', ( #289 ), #711, .F. ) ;
#495 = PLANE ( 'NONE',  #435 ) ;
#496 = AXIS2_PLACEMENT_3D ( 'NONE', #320, #721, #668 ) ;
#497 = ORIENTED_EDGE ( 'NONE', *, *, #107, .T. ) ;
#498 = VERTEX_POINT ( 'NONE', #593 ) ;
#499 = DIRECTION ( 'NONE',  ( 1.000000000000000000, 0.000000000000000000, 0.000000000000000000 ) ) ;
#500 = ORIENTED_EDGE ( 'NONE', *, *, #718, .T. ) ;
#501 = CARTESIAN_POINT ( 'NONE',  ( 0.3210629915748032248, 0.2000000000000000111, 0.3858267716535433989 ) ) ;
#502 = CARTESIAN_POINT ( 'NONE',  ( -0.3694881884251968729, 0.2000000000000000111, 0.4311023622047244763 ) ) ;
#503 = ADVANCED_FACE ( 'NONE', ( #539 ), #188, .F. ) ;
#504 = ORIENTED_EDGE ( 'NONE', *, *, #513, .F. ) ;
#505 = DIRECTION ( 'NONE',  ( 1.000000000000000000, 0.000000000000000000, 0.000000000000000000 ) ) ;
#506 = ORIENTED_EDGE ( 'NONE', *, *, #491, .T. ) ;
#507 = AXIS2_PLACEMENT_3D ( 'NONE', #74, #131, #476 ) ;
#508 = VECTOR ( 'NONE', #548, 39.37007874015748143 ) ;
#509 = EDGE_CURVE ( 'NONE', #215, #429, #763, .T. ) ;
#510 = DIRECTION ( 'NONE',  ( -0.000000000000000000, -1.000000000000000000, -0.000000000000000000 ) ) ;
#511 = DIRECTION ( 'NONE',  ( 0.000000000000000000, 1.000000000000000000, 0.000000000000000000 ) ) ;
#512 = ORIENTED_EDGE ( 'NONE', *, *, #313, .T. ) ;
#513 = EDGE_CURVE ( 'NONE', #139, #144, #233, .T. ) ;
#514 = FACE_BOUND ( 'NONE', #559, .T. ) ;
#515 = PRODUCT_RELATED_PRODUCT_CATEGORY ( 'part', '', ( #530 ) ) ;
#516 = LINE ( 'NONE', #560, #629 ) ;
#517 = AXIS2_PLACEMENT_3D ( 'NONE', #702, #177, #410 ) ;
#518 = AXIS2_PLACEMENT_3D ( 'NONE', #265, #145, #499 ) ;
#519 = CARTESIAN_POINT ( 'NONE',  ( -0.3694881884251968729, 0.000000000000000000, 0.3858267716535433989 ) ) ;
#520 = APPLICATION_CONTEXT ( 'automotive_design' ) ;
#521 = CARTESIAN_POINT ( 'NONE',  ( 0.3210629915748032248, 0.000000000000000000, 0.3405511811023622659 ) ) ;
#522 = VERTEX_POINT ( 'NONE', #698 ) ;
#523 =( NAMED_UNIT ( * ) PLANE_ANGLE_UNIT ( ) SI_UNIT ( $, .RADIAN. ) );
#524 = EDGE_CURVE ( 'NONE', #173, #124, #413, .T. ) ;
#525 = DIRECTION ( 'NONE',  ( -0.000000000000000000, -1.000000000000000000, -0.000000000000000000 ) ) ;
#526 = CYLINDRICAL_SURFACE ( 'NONE', #517, 0.04527559055118110520 ) ;
#527 = ORIENTED_EDGE ( 'NONE', *, *, #17, .F. ) ;
#528 = CARTESIAN_POINT ( 'NONE',  ( -0.5511811023622046335, 0.2000000000000000111, 0.7125984251968505712 ) ) ;
#529 = EDGE_CURVE ( 'NONE', #207, #710, #484, .T. ) ;
#530 = PRODUCT ( 'FiberHolder', 'FiberHolder', '', ( #228 ) ) ;
#531 = CYLINDRICAL_SURFACE ( 'NONE', #716, 0.1771653543307089851 ) ;
#532 = AXIS2_PLACEMENT_3D ( 'NONE', #614, #138, #660 ) ;
#533 = ORIENTED_EDGE ( 'NONE', *, *, #353, .F. ) ;
#534 = LINE ( 'NONE', #113, #481 ) ;
#535 = ORIENTED_EDGE ( 'NONE', *, *, #700, .F. ) ;
#536 = DIMENSIONAL_EXPONENTS ( 1.000000000000000000, 0.000000000000000000, 0.000000000000000000, 0.000000000000000000, 0.000000000000000000, 0.000000000000000000, 0.000000000000000000 ) ;
#537 = DIRECTION ( 'NONE',  ( -1.000000000000000000, 0.000000000000000000, 0.000000000000000000 ) ) ;
#538 = ORIENTED_EDGE ( 'NONE', *, *, #357, .F. ) ;
#539 = FACE_OUTER_BOUND ( 'NONE', #624, .T. ) ;
#540 = DIRECTION ( 'NONE',  ( -0.000000000000000000, -1.000000000000000000, -0.000000000000000000 ) ) ;
#541 = VERTEX_POINT ( 'NONE', #31 ) ;
#542 = DIRECTION ( 'NONE',  ( 0.000000000000000000, 0.000000000000000000, -1.000000000000000000 ) ) ;
#543 = LINE ( 'NONE', #251, #739 ) ;
#544 = ORIENTED_EDGE ( 'NONE', *, *, #183, .F. ) ;
#545 = PRODUCT_DEFINITION_SHAPE ( 'NONE', 'NONE',  #163 ) ;
#546 = CARTESIAN_POINT ( 'NONE',  ( 0.2257874015748031760, 0.000000000000000000, 0.7125984251968504601 ) ) ;
#547 = EDGE_LOOP ( 'NONE', ( #266, #264, #527, #500 ) ) ;
#548 = DIRECTION ( 'NONE',  ( -0.000000000000000000, -0.000000000000000000, -1.000000000000000000 ) ) ;
#549 = EDGE_LOOP ( 'NONE', ( #478, #209 ) ) ;
#550 = LINE ( 'NONE', #147, #152 ) ;
#551 = LINE ( 'NONE', #309, #65 ) ;
#552 = ORIENTED_EDGE ( 'NONE', *, *, #565, .F. ) ;
#553 = ORIENTED_EDGE ( 'NONE', *, *, #667, .T. ) ;
#554 = VECTOR ( 'NONE', #407, 39.37007874015748143 ) ;
#555 = FACE_OUTER_BOUND ( 'NONE', #547, .T. ) ;
#556 = VERTEX_POINT ( 'NONE', #427 ) ;
#557 = DIRECTION ( 'NONE',  ( 0.000000000000000000, 0.000000000000000000, -1.000000000000000000 ) ) ;
#558 = DIRECTION ( 'NONE',  ( -0.000000000000000000, -1.000000000000000000, -0.000000000000000000 ) ) ;
#559 = EDGE_LOOP ( 'NONE', ( #611, #196 ) ) ;
#560 = CARTESIAN_POINT ( 'NONE',  ( -0.4527559055118110520, 0.1606299212598425452, 0.2952755905511811885 ) ) ;
#561 = FACE_OUTER_BOUND ( 'NONE', #2, .T. ) ;
#562 = VERTEX_POINT ( 'NONE', #374 ) ;
#563 = CARTESIAN_POINT ( 'NONE',  ( 0.2257874015748031760, 0.2000000000000000111, 0.7125984251968504601 ) ) ;
#564 = SURFACE_STYLE_USAGE ( .BOTH. , #688 ) ;
#565 = EDGE_CURVE ( 'NONE', #316, #556, #551, .T. ) ;
#566 = ORIENTED_EDGE ( 'NONE', *, *, #7, .F. ) ;
#567 = EDGE_CURVE ( 'NONE', #522, #627, #487, .T. ) ;
#568 = CARTESIAN_POINT ( 'NONE',  ( -0.2742125984251967963, 0.000000000000000000, 0.6125984251968504823 ) ) ;
#569 = CARTESIAN_POINT ( 'NONE',  ( -0.5511811023622046335, 0.2000000000000000111, -0.3452755905511811774 ) ) ;
#570 = ORIENTED_EDGE ( 'NONE', *, *, #82, .T. ) ;
#571 = CARTESIAN_POINT ( 'NONE',  ( 0.2250000000000000333, 0.000000000000000000, -0.1771653543307089573 ) ) ;
#572 = PLANE ( 'NONE',  #45 ) ;
#573 = FACE_BOUND ( 'NONE', #12, .T. ) ;
#574 = VECTOR ( 'NONE', #649, 39.37007874015748143 ) ;
#575 = VECTOR ( 'NONE', #651, 39.37007874015748143 ) ;
#576 = CARTESIAN_POINT ( 'NONE',  ( -0.2742125984251967963, 0.2000000000000000111, 0.7125984251968504601 ) ) ;
#577 = VECTOR ( 'NONE', #735, 39.37007874015748143 ) ;
#578 = ADVANCED_FACE ( 'NONE', ( #260 ), #495, .F. ) ;
#579 = FACE_OUTER_BOUND ( 'NONE', #669, .T. ) ;
#580 = DIRECTION ( 'NONE',  ( 1.000000000000000000, 0.000000000000000000, 0.000000000000000000 ) ) ;
#581 = ORIENTED_EDGE ( 'NONE', *, *, #529, .F. ) ;
#582 = EDGE_CURVE ( 'NONE', #372, #211, #4, .T. ) ;
#583 = LINE ( 'NONE', #247, #387 ) ;
#584 = DIMENSIONAL_EXPONENTS ( 1.000000000000000000, 0.000000000000000000, 0.000000000000000000, 0.000000000000000000, 0.000000000000000000, 0.000000000000000000, 0.000000000000000000 ) ;
#585 = DIRECTION ( 'NONE',  ( 0.000000000000000000, 0.000000000000000000, 1.000000000000000000 ) ) ;
#586 = ORIENTED_EDGE ( 'NONE', *, *, #49, .T. ) ;
#587 = SHAPE_DEFINITION_REPRESENTATION ( #545, #690 ) ;
#588 = EDGE_CURVE ( 'NONE', #310, #720, #458, .T. ) ;
#589 = CARTESIAN_POINT ( 'NONE',  ( -0.4527559055118110520, 0.1606299212598425452, 0.2952755905511811885 ) ) ;
#590 = CARTESIAN_POINT ( 'NONE',  ( -0.3694881884251968729, 0.2000000000000000111, 0.3858267716535433989 ) ) ;
#591 = EDGE_LOOP ( 'NONE', ( #454, #63, #244, #10 ) ) ;
#592 = CIRCLE ( 'NONE', #263, 0.1771653543307089018 ) ;
#593 = CARTESIAN_POINT ( 'NONE',  ( -0.5511811023622046335, 0.2000000000000000111, 0.7125984251968505712 ) ) ;
#594 = CARTESIAN_POINT ( 'NONE',  ( -0.2249999999999999500, 0.000000000000000000, 0.000000000000000000 ) ) ;
#595 = ORIENTED_EDGE ( 'NONE', *, *, #588, .F. ) ;
#596 = DIRECTION ( 'NONE',  ( 0.000000000000000000, 0.000000000000000000, 1.000000000000000000 ) ) ;
#597 = PLANE ( 'NONE',  #69 ) ;
#598 = DIRECTION ( 'NONE',  ( 0.000000000000000000, 0.000000000000000000, -1.000000000000000000 ) ) ;
#599 = CARTESIAN_POINT ( 'NONE',  ( 0.000000000000000000, 0.2000000000000000111, 0.000000000000000000 ) ) ;
#600 = FACE_BOUND ( 'NONE', #475, .T. ) ;
#601 = ORIENTED_EDGE ( 'NONE', *, *, #745, .F. ) ;
#602 = EDGE_CURVE ( 'NONE', #715, #678, #434, .T. ) ;
#603 = DIRECTION ( 'NONE',  ( -0.000000000000000000, -1.000000000000000000, -0.000000000000000000 ) ) ;
#604 = ORIENTED_EDGE ( 'NONE', *, *, #204, .F. ) ;
#605 = LINE ( 'NONE', #493, #421 ) ;
#606 = DIRECTION ( 'NONE',  ( 0.000000000000000000, -0.000000000000000000, -1.000000000000000000 ) ) ;
#607 = ORIENTED_EDGE ( 'NONE', *, *, #641, .F. ) ;
#608 = ADVANCED_FACE ( 'NONE', ( #555 ), #198, .F. ) ;
#609 = ORIENTED_EDGE ( 'NONE', *, *, #121, .T. ) ;
#610 = DIRECTION ( 'NONE',  ( -0.000000000000000000, -1.000000000000000000, -0.000000000000000000 ) ) ;
#611 = ORIENTED_EDGE ( 'NONE', *, *, #447, .F. ) ;
#612 = DIRECTION ( 'NONE',  ( -1.000000000000000000, -0.000000000000000000, -0.000000000000000000 ) ) ;
#613 = VECTOR ( 'NONE', #713, 39.37007874015748143 ) ;
#614 = CARTESIAN_POINT ( 'NONE',  ( 0.3210629915748032248, 0.2000000000000000111, 0.3858267716535433989 ) ) ;
#615 = ORIENTED_EDGE ( 'NONE', *, *, #229, .F. ) ;
#616 = CIRCLE ( 'NONE', #652, 0.1771653543307089018 ) ;
#617 = DIRECTION ( 'NONE',  ( 0.000000000000000000, 0.000000000000000000, 1.000000000000000000 ) ) ;
#618 = UNCERTAINTY_MEASURE_WITH_UNIT (LENGTH_MEASURE( 1.000000000000000082E-05 ), #741, 'distance_accuracy_value', 'NONE');
#619 = DIRECTION ( 'NONE',  ( 0.000000000000000000, 0.000000000000000000, 1.000000000000000000 ) ) ;
#620 = ORIENTED_EDGE ( 'NONE', *, *, #447, .T. ) ;
#621 = DIRECTION ( 'NONE',  ( -1.000000000000000000, 0.000000000000000000, -0.000000000000000000 ) ) ;
#622 = ADVANCED_FACE ( 'NONE', ( #717, #195, #205, #370 ), #671, .F. ) ;
#623 = LINE ( 'NONE', #165, #654 ) ;
#624 = EDGE_LOOP ( 'NONE', ( #33, #291, #334, #570 ) ) ;
#625 = FACE_OUTER_BOUND ( 'NONE', #287, .T. ) ;
#626 = DIRECTION ( 'NONE',  ( 0.000000000000000000, 1.000000000000000000, 0.000000000000000000 ) ) ;
#627 = VERTEX_POINT ( 'NONE', #250 ) ;
#628 = ADVANCED_FACE ( 'NONE', ( #35 ), #142, .F. ) ;
#629 = VECTOR ( 'NONE', #505, 39.37007874015748143 ) ;
#630 = LINE ( 'NONE', #343, #375 ) ;
#631 = CARTESIAN_POINT ( 'NONE',  ( 0.5027559055118110409, 0.2000000000000000111, -0.3452755905511811774 ) ) ;
#632 = CARTESIAN_POINT ( 'NONE',  ( 0.2257874015748031760, 0.2000000000000000111, 0.6125984251968504823 ) ) ;
#633 = EDGE_CURVE ( 'NONE', #339, #439, #214, .T. ) ;
#634 = CARTESIAN_POINT ( 'NONE',  ( -0.5511811023622046335, 0.2000000000000000111, -0.3452755905511811774 ) ) ;
#635 =( NAMED_UNIT ( * ) SI_UNIT ( $, .STERADIAN. ) SOLID_ANGLE_UNIT ( ) );
#636 = DIRECTION ( 'NONE',  ( -0.000000000000000000, -1.000000000000000000, -0.000000000000000000 ) ) ;
#637 = CIRCLE ( 'NONE', #284, 0.04527559055118110520 ) ;
#638 = PLANE ( 'NONE',  #460 ) ;
#639 = CLOSED_SHELL ( 'NONE', ( #26, #292, #648, #258, #242, #178, #622, #380, #221, #503, #646, #762, #87, #608, #424, #393, #340, #494, #727, #628, #578, #42, #117 ) ) ;
#640 =( GEOMETRIC_REPRESENTATION_CONTEXT ( 3 ) GLOBAL_UNCERTAINTY_ASSIGNED_CONTEXT ( ( #137 ) ) GLOBAL_UNIT_ASSIGNED_CONTEXT ( ( #693, #523, #635 ) ) REPRESENTATION_CONTEXT ( 'NONE', 'WORKASPACE' ) );
#641 = EDGE_CURVE ( 'NONE', #23, #437, #733, .T. ) ;
#642 = ORIENTED_EDGE ( 'NONE', *, *, #524, .F. ) ;
#643 = CARTESIAN_POINT ( 'NONE',  ( -0.2742125984251967963, 0.000000000000000000, 0.7125984251968504601 ) ) ;
#644 = DIRECTION ( 'NONE',  ( 0.000000000000000000, 1.000000000000000000, 0.000000000000000000 ) ) ;
#645 = VERTEX_POINT ( 'NONE', #83 ) ;
#646 = ADVANCED_FACE ( 'NONE', ( #311 ), #674, .F. ) ;
#647 = CARTESIAN_POINT ( 'NONE',  ( 0.4527559055118110520, 0.1606299212598425452, -0.2952755905511811885 ) ) ;
#648 = ADVANCED_FACE ( 'NONE', ( #385 ), #28, .F. ) ;
#649 = DIRECTION ( 'NONE',  ( 1.000000000000000000, 0.000000000000000000, 0.000000000000000000 ) ) ;
#650 = EDGE_LOOP ( 'NONE', ( #586, #379, #43, #399 ) ) ;
#651 = DIRECTION ( 'NONE',  ( -0.000000000000000000, -1.000000000000000000, -0.000000000000000000 ) ) ;
#652 = AXIS2_PLACEMENT_3D ( 'NONE', #757, #644, #11 ) ;
#653 = DIRECTION ( 'NONE',  ( 0.000000000000000000, 1.000000000000000000, 0.000000000000000000 ) ) ;
#654 = VECTOR ( 'NONE', #338, 39.37007874015748143 ) ;
#655 = CIRCLE ( 'NONE', #324, 0.04527559055118110520 ) ;
#656 = ORIENTED_EDGE ( 'NONE', *, *, #353, .T. ) ;
#657 = LINE ( 'NONE', #304, #433 ) ;
#658 = LINE ( 'NONE', #135, #190 ) ;
#659 = ORIENTED_EDGE ( 'NONE', *, *, #397, .T. ) ;
#660 = DIRECTION ( 'NONE',  ( 0.000000000000000000, 0.000000000000000000, 1.000000000000000000 ) ) ;
#661 = DIRECTION ( 'NONE',  ( -0.000000000000000000, -1.000000000000000000, -0.000000000000000000 ) ) ;
#662 = EDGE_CURVE ( 'NONE', #486, #306, #274, .T. ) ;
#663 = ORIENTED_EDGE ( 'NONE', *, *, #216, .T. ) ;
#664 = DIRECTION ( 'NONE',  ( -0.000000000000000000, -0.000000000000000000, -1.000000000000000000 ) ) ;
#665 = ORIENTED_EDGE ( 'NONE', *, *, #582, .T. ) ;
#666 = AXIS2_PLACEMENT_3D ( 'NONE', #430, #78, #148 ) ;
#667 = EDGE_CURVE ( 'NONE', #562, #498, #751, .T. ) ;
#668 = DIRECTION ( 'NONE',  ( 0.000000000000000000, 0.000000000000000000, 1.000000000000000000 ) ) ;
#669 = EDGE_LOOP ( 'NONE', ( #383, #703, #328, #276 ) ) ;
#670 = ORIENTED_EDGE ( 'NONE', *, *, #234, .F. ) ;
#671 = PLANE ( 'NONE',  #754 ) ;
#672 = EDGE_LOOP ( 'NONE', ( #246, #552, #670, #415 ) ) ;
#673 = LINE ( 'NONE', #354, #753 ) ;
#674 = PLANE ( 'NONE',  #361 ) ;
#675 = EDGE_LOOP ( 'NONE', ( #269, #36, #8, #615 ) ) ;
#676 = CARTESIAN_POINT ( 'NONE',  ( 0.2257874015748031760, 0.000000000000000000, 0.7125984251968504601 ) ) ;
#677 = AXIS2_PLACEMENT_3D ( 'NONE', #444, #511, #110 ) ;
#678 = VERTEX_POINT ( 'NONE', #46 ) ;
#679 = PRODUCT_DEFINITION_FORMATION_WITH_SPECIFIED_SOURCE ( 'ANY', '', #530, .NOT_KNOWN. ) ;
#680 = CYLINDRICAL_SURFACE ( 'NONE', #262, 0.1771653543307089018 ) ;
#681 = CARTESIAN_POINT ( 'NONE',  ( 0.2257874015748031760, 0.2000000000000000111, 0.7125984251968504601 ) ) ;
#682 = ORIENTED_EDGE ( 'NONE', *, *, #101, .T. ) ;
#683 = DIRECTION ( 'NONE',  ( -0.000000000000000000, 1.000000000000000000, -0.000000000000000000 ) ) ;
#684 = EDGE_CURVE ( 'NONE', #211, #372, #637, .T. ) ;
#685 = DIRECTION ( 'NONE',  ( -0.000000000000000000, -1.000000000000000000, -0.000000000000000000 ) ) ;
#686 = ORIENTED_EDGE ( 'NONE', *, *, #529, .T. ) ;
#687 = DIRECTION ( 'NONE',  ( 0.000000000000000000, 1.000000000000000000, 0.000000000000000000 ) ) ;
#688 = SURFACE_SIDE_STYLE ('',( #333 ) ) ;
#689 = DIRECTION ( 'NONE',  ( 0.000000000000000000, 0.000000000000000000, 1.000000000000000000 ) ) ;
#690 = ADVANCED_BREP_SHAPE_REPRESENTATION ( 'FiberHolder', ( #759, #201 ), #640 ) ;
#691 =( NAMED_UNIT ( * ) PLANE_ANGLE_UNIT ( ) SI_UNIT ( $, .RADIAN. ) );
#692 = CARTESIAN_POINT ( 'NONE',  ( -0.2742125984251967963, 0.2000000000000000111, 0.6125984251968504823 ) ) ;
#693 =( CONVERSION_BASED_UNIT ( 'INCH', #463 ) LENGTH_UNIT ( ) NAMED_UNIT ( #536 ) );
#694 = CARTESIAN_POINT ( 'NONE',  ( -0.4527559055118110520, 0.1606299212598425452, -0.2952755905511811885 ) ) ;
#695 = CARTESIAN_POINT ( 'NONE',  ( -0.5511811023622046335, 0.000000000000000000, 0.7125984251968505712 ) ) ;
#696 = PRODUCT_DEFINITION_CONTEXT ( 'detailed design', #520, 'design' ) ;
#697 = ORIENTED_EDGE ( 'NONE', *, *, #377, .F. ) ;
#698 = CARTESIAN_POINT ( 'NONE',  ( -0.2249999999999999223, 0.1606299212598425452, 0.1771653543307089851 ) ) ;
#699 = CIRCLE ( 'NONE', #677, 0.1771653543307089851 ) ;
#700 = EDGE_CURVE ( 'NONE', #211, #439, #98, .T. ) ;
#701 = VECTOR ( 'NONE', #402, 39.37007874015748143 ) ;
#702 = CARTESIAN_POINT ( 'NONE',  ( -0.3694881884251968729, 0.2000000000000000111, 0.3858267716535433989 ) ) ;
#703 = ORIENTED_EDGE ( 'NONE', *, *, #489, .F. ) ;
#704 = EDGE_CURVE ( 'NONE', #146, #678, #623, .T. ) ;
#705 = CARTESIAN_POINT ( 'NONE',  ( -0.3694881884251968729, 0.000000000000000000, 0.4311023622047244763 ) ) ;
#706 = DIRECTION ( 'NONE',  ( 0.000000000000000000, 0.000000000000000000, 1.000000000000000000 ) ) ;
#707 = VERTEX_POINT ( 'NONE', #747 ) ;
#708 = FACE_OUTER_BOUND ( 'NONE', #360, .T. ) ;
#709 = DIRECTION ( 'NONE',  ( 1.000000000000000000, 0.000000000000000000, -4.931694316920560451E-16 ) ) ;
#710 = VERTEX_POINT ( 'NONE', #41 ) ;
#711 = CYLINDRICAL_SURFACE ( 'NONE', #345, 0.04527559055118110520 ) ;
#712 = AXIS2_PLACEMENT_3D ( 'NONE', #473, #227, #231 ) ;
#713 = DIRECTION ( 'NONE',  ( 0.000000000000000000, 0.000000000000000000, 1.000000000000000000 ) ) ;
#714 = STYLED_ITEM ( 'NONE', ( #398 ), #759 ) ;
#715 = VERTEX_POINT ( 'NONE', #330 ) ;
#716 = AXIS2_PLACEMENT_3D ( 'NONE', #56, #123, #240 ) ;
#717 = FACE_BOUND ( 'NONE', #672, .T. ) ;
#718 = EDGE_CURVE ( 'NONE', #710, #295, #106, .T. ) ;
#719 = CARTESIAN_POINT ( 'NONE',  ( -0.3694881884251968729, 0.2000000000000000111, 0.3405511811023622659 ) ) ;
#720 = VERTEX_POINT ( 'NONE', #342 ) ;
#721 = DIRECTION ( 'NONE',  ( 0.000000000000000000, 1.000000000000000000, 0.000000000000000000 ) ) ;
#722 = VERTEX_POINT ( 'NONE', #457 ) ;
#723 = EDGE_CURVE ( 'NONE', #627, #437, #699, .T. ) ;
#724 = DIRECTION ( 'NONE',  ( -1.000000000000000000, -0.000000000000000000, -0.000000000000000000 ) ) ;
#725 = CARTESIAN_POINT ( 'NONE',  ( -0.4527559055118110520, 0.1606299212598425452, -0.2952755905511811885 ) ) ;
#726 = EDGE_LOOP ( 'NONE', ( #601, #303, #450, #120 ) ) ;
#727 = ADVANCED_FACE ( 'NONE', ( #561 ), #572, .F. ) ;
#728 = VECTOR ( 'NONE', #664, 39.37007874015748143 ) ;
#729 = ORIENTED_EDGE ( 'NONE', *, *, #49, .F. ) ;
#730 = DIRECTION ( 'NONE',  ( 0.000000000000000000, 0.000000000000000000, 1.000000000000000000 ) ) ;
#731 = ORIENTED_EDGE ( 'NONE', *, *, #357, .T. ) ;
#732 = ORIENTED_EDGE ( 'NONE', *, *, #700, .T. ) ;
#733 = LINE ( 'NONE', #382, #114 ) ;
#734 = ORIENTED_EDGE ( 'NONE', *, *, #509, .T. ) ;
#735 = DIRECTION ( 'NONE',  ( 1.000000000000000000, 0.000000000000000000, 4.931694316920560451E-16 ) ) ;
#736 =( NAMED_UNIT ( * ) SI_UNIT ( $, .STERADIAN. ) SOLID_ANGLE_UNIT ( ) );
#737 = ORIENTED_EDGE ( 'NONE', *, *, #718, .F. ) ;
#738 = PLANE ( 'NONE',  #298 ) ;
#739 = VECTOR ( 'NONE', #661, 39.37007874015748143 ) ;
#740 = VECTOR ( 'NONE', #118, 39.37007874015748143 ) ;
#741 =( CONVERSION_BASED_UNIT ( 'INCH', #279 ) LENGTH_UNIT ( ) NAMED_UNIT ( #584 ) );
#742 =( GEOMETRIC_REPRESENTATION_CONTEXT ( 3 ) GLOBAL_UNCERTAINTY_ASSIGNED_CONTEXT ( ( #618 ) ) GLOBAL_UNIT_ASSIGNED_CONTEXT ( ( #741, #691, #736 ) ) REPRESENTATION_CONTEXT ( 'NONE', 'WORKASPACE' ) );
#743 = VECTOR ( 'NONE', #329, 39.37007874015748143 ) ;
#744 = ORIENTED_EDGE ( 'NONE', *, *, #313, .F. ) ;
#745 = EDGE_CURVE ( 'NONE', #720, #486, #268, .T. ) ;
#746 = DIRECTION ( 'NONE',  ( 0.000000000000000000, 0.000000000000000000, -1.000000000000000000 ) ) ;
#747 = CARTESIAN_POINT ( 'NONE',  ( 0.5027559055118110409, 0.000000000000000000, 0.7125984251968505712 ) ) ;
#748 = ORIENTED_EDGE ( 'NONE', *, *, #524, .T. ) ;
#749 = LINE ( 'NONE', #563, #47 ) ;
#750 = EDGE_CURVE ( 'NONE', #215, #541, #38, .T. ) ;
#751 = LINE ( 'NONE', #569, #335 ) ;
#752 = CARTESIAN_POINT ( 'NONE',  ( 0.000000000000000000, 0.1606299212598425452, 0.000000000000000000 ) ) ;
#753 = VECTOR ( 'NONE', #344, 39.37007874015748143 ) ;
#754 = AXIS2_PLACEMENT_3D ( 'NONE', #599, #94, #606 ) ;
#755 = CIRCLE ( 'NONE', #92, 0.1771653543307089018 ) ;
#756 = VECTOR ( 'NONE', #580, 39.37007874015748143 ) ;
#757 = CARTESIAN_POINT ( 'NONE',  ( 0.2250000000000000333, 0.000000000000000000, -6.829619984160658046E-17 ) ) ;
#758 = DIRECTION ( 'NONE',  ( 0.000000000000000000, 0.000000000000000000, 1.000000000000000000 ) ) ;
#759 = MANIFOLD_SOLID_BREP ( 'Cut-Extrude1', #639 ) ;
#760 = DIRECTION ( 'NONE',  ( 0.000000000000000000, 1.000000000000000000, 0.000000000000000000 ) ) ;
#761 = ORIENTED_EDGE ( 'NONE', *, *, #412, .F. ) ;
#762 = ADVANCED_FACE ( 'NONE', ( #154 ), #449, .F. ) ;
#763 = LINE ( 'NONE', #238, #296 ) ;
ENDSEC;
END-ISO-10303-21;
