ISO-10303-21;
HEADER;
FILE_DESCRIPTION (( 'STEP AP214' ),
    '1' );
FILE_NAME ('MoonInsert.STEP',
    '2026-05-05T03:26:23',
    ( '' ),
    ( '' ),
    'SwSTEP 2.0',
    'SolidWorks 2026',
    '' );
FILE_SCHEMA (( 'AUTOMOTIVE_DESIGN' ));
ENDSEC;

DATA;
#1 = PLANE ( 'NONE',  #81 ) ;
#2 = EDGE_CURVE ( 'NONE', #358, #486, #343, .T. ) ;
#3 = ORIENTED_EDGE ( 'NONE', *, *, #159, .T. ) ;
#4 = CYLINDRICAL_SURFACE ( 'NONE', #410, 4.999999999999997335 ) ;
#5 = ORIENTED_EDGE ( 'NONE', *, *, #481, .F. ) ;
#6 = SURFACE_STYLE_USAGE ( .BOTH. , #43 ) ;
#7 = ORIENTED_EDGE ( 'NONE', *, *, #217, .T. ) ;
#8 = EDGE_CURVE ( 'NONE', #479, #362, #354, .T. ) ;
#9 = ADVANCED_FACE ( 'NONE', ( #444 ), #365, .T. ) ;
#10 = EDGE_LOOP ( 'NONE', ( #282, #314, #3 ) ) ;
#11 = VERTEX_POINT ( 'NONE', #184 ) ;
#12 = CIRCLE ( 'NONE', #423, 15.00000000000000533 ) ;
#13 = MECHANICAL_DESIGN_GEOMETRIC_PRESENTATION_REPRESENTATION (  '', ( #386 ), #377 ) ;
#14 = DIRECTION ( 'NONE',  ( -1.000000000000000000, 0.000000000000000000, 0.000000000000000000 ) ) ;
#15 = PRODUCT ( 'MoonInsert', 'MoonInsert', '', ( #166 ) ) ;
#16 = LINE ( 'NONE', #99, #122 ) ;
#17 = ADVANCED_FACE ( 'NONE', ( #446 ), #220, .T. ) ;
#18 = DIRECTION ( 'NONE',  ( 0.000000000000000000, 0.000000000000000000, 1.000000000000000000 ) ) ;
#19 = AXIS2_PLACEMENT_3D ( 'NONE', #224, #328, #182 ) ;
#20 = CARTESIAN_POINT ( 'NONE',  ( -5.000000000000000888, 0.000000000000000000, 1.000000000000000000 ) ) ;
#21 = DIRECTION ( 'NONE',  ( 0.000000000000000000, 0.000000000000000000, 1.000000000000000000 ) ) ;
#22 = DIRECTION ( 'NONE',  ( 1.000000000000000000, 0.000000000000000000, 0.000000000000000000 ) ) ;
#23 = ORIENTED_EDGE ( 'NONE', *, *, #77, .T. ) ;
#24 = DIRECTION ( 'NONE',  ( -1.000000000000000000, 0.000000000000000000, 0.000000000000000000 ) ) ;
#25 =( NAMED_UNIT ( * ) SI_UNIT ( $, .STERADIAN. ) SOLID_ANGLE_UNIT ( ) );
#26 = VECTOR ( 'NONE', #171, 1000.000000000000000 ) ;
#27 = ORIENTED_EDGE ( 'NONE', *, *, #312, .T. ) ;
#28 = FACE_OUTER_BOUND ( 'NONE', #338, .T. ) ;
#29 = EDGE_CURVE ( 'NONE', #398, #197, #475, .T. ) ;
#30 = DIRECTION ( 'NONE',  ( 0.000000000000000000, -1.000000000000000000, 0.000000000000000000 ) ) ;
#31 = LINE ( 'NONE', #198, #371 ) ;
#32 = CARTESIAN_POINT ( 'NONE',  ( 4.999999999999997335, 0.000000000000000000, 1.989999999999999991 ) ) ;
#33 = DIRECTION ( 'NONE',  ( -0.000000000000000000, 0.000000000000000000, 1.000000000000000000 ) ) ;
#34 = SURFACE_STYLE_FILL_AREA ( #384 ) ;
#35 = CIRCLE ( 'NONE', #19, 5.000000000000000888 ) ;
#36 = ORIENTED_EDGE ( 'NONE', *, *, #435, .F. ) ;
#37 = AXIS2_PLACEMENT_3D ( 'NONE', #150, #376, #374 ) ;
#38 = DIRECTION ( 'NONE',  ( 0.000000000000000000, 0.000000000000000000, 1.000000000000000000 ) ) ;
#39 = VERTEX_POINT ( 'NONE', #477 ) ;
#40 = DIRECTION ( 'NONE',  ( 0.000000000000000000, 0.000000000000000000, 1.000000000000000000 ) ) ;
#41 = DIRECTION ( 'NONE',  ( 1.000000000000000000, 0.000000000000000000, 0.000000000000000000 ) ) ;
#42 = VERTEX_POINT ( 'NONE', #142 ) ;
#43 = SURFACE_SIDE_STYLE ('',( #395 ) ) ;
#44 = ORIENTED_EDGE ( 'NONE', *, *, #253, .F. ) ;
#45 = EDGE_CURVE ( 'NONE', #119, #429, #35, .T. ) ;
#46 = CIRCLE ( 'NONE', #449, 15.00000000000000533 ) ;
#47 = EDGE_CURVE ( 'NONE', #11, #39, #373, .T. ) ;
#48 = FACE_OUTER_BOUND ( 'NONE', #249, .T. ) ;
#49 = EDGE_LOOP ( 'NONE', ( #131, #23, #351, #413 ) ) ;
#50 = APPLICATION_PROTOCOL_DEFINITION ( 'draft international standard', 'automotive_design', 1998, #153 ) ;
#51 = ORIENTED_EDGE ( 'NONE', *, *, #88, .T. ) ;
#52 = FACE_OUTER_BOUND ( 'NONE', #49, .T. ) ;
#53 = DIRECTION ( 'NONE',  ( 1.000000000000000000, 0.000000000000000000, 0.000000000000000000 ) ) ;
#54 = COLOUR_RGB ( '',0.7921568627450980005, 0.8196078431372548767, 0.9333333333333333481 ) ;
#55 = CARTESIAN_POINT ( 'NONE',  ( 0.000000000000000000, 0.000000000000000000, 1.000000000000000000 ) ) ;
#56 = DIRECTION ( 'NONE',  ( 1.000000000000000000, 0.000000000000000000, -0.000000000000000000 ) ) ;
#57 = DIRECTION ( 'NONE',  ( 1.000000000000000000, 0.000000000000000000, 0.000000000000000000 ) ) ;
#58 = EDGE_CURVE ( 'NONE', #208, #394, #483, .T. ) ;
#59 = VECTOR ( 'NONE', #453, 1000.000000000000000 ) ;
#60 = CIRCLE ( 'NONE', #466, 7.500000000000000000 ) ;
#61 = DIRECTION ( 'NONE',  ( -0.000000000000000000, -0.000000000000000000, -1.000000000000000000 ) ) ;
#62 = EDGE_LOOP ( 'NONE', ( #286, #295, #235, #327, #438 ) ) ;
#63 = PLANE ( 'NONE',  #318 ) ;
#64 = CARTESIAN_POINT ( 'NONE',  ( 3.450922203707136759, -3.618167484233013376, 1.989999999999999991 ) ) ;
#65 = FACE_OUTER_BOUND ( 'NONE', #270, .T. ) ;
#66 = AXIS2_PLACEMENT_3D ( 'NONE', #498, #118, #41 ) ;
#67 = CARTESIAN_POINT ( 'NONE',  ( 10.23372305427932893, 9.760681966354178840, 1.989999999999999991 ) ) ;
#68 = ORIENTED_EDGE ( 'NONE', *, *, #393, .T. ) ;
#69 = ADVANCED_BREP_SHAPE_REPRESENTATION ( 'MoonInsert', ( #204, #366, #496 ), #309 ) ;
#70 = DIRECTION ( 'NONE',  ( 0.000000000000000000, 0.000000000000000000, 1.000000000000000000 ) ) ;
#71 = DIRECTION ( 'NONE',  ( 0.000000000000000000, 0.000000000000000000, 1.000000000000000000 ) ) ;
#72 = ORIENTED_EDGE ( 'NONE', *, *, #145, .F. ) ;
#73 = DIRECTION ( 'NONE',  ( 0.000000000000000000, 0.000000000000000000, 1.000000000000000000 ) ) ;
#74 = DIRECTION ( 'NONE',  ( 0.000000000000000000, -1.000000000000000000, 0.000000000000000000 ) ) ;
#75 = ORIENTED_EDGE ( 'NONE', *, *, #170, .T. ) ;
#76 = CARTESIAN_POINT ( 'NONE',  ( 10.23372305427932893, 9.760681966354178840, 1.989999999999999991 ) ) ;
#77 = EDGE_CURVE ( 'NONE', #472, #208, #16, .T. ) ;
#78 = FILL_AREA_STYLE_COLOUR ( '', #54 ) ;
#79 = VECTOR ( 'NONE', #30, 1000.000000000000000 ) ;
#80 = ORIENTED_EDGE ( 'NONE', *, *, #8, .F. ) ;
#81 = AXIS2_PLACEMENT_3D ( 'NONE', #389, #161, #392 ) ;
#82 = VECTOR ( 'NONE', #265, 1000.000000000000000 ) ;
#83 = CARTESIAN_POINT ( 'NONE',  ( 0.000000000000000000, 0.000000000000000000, 1.989999999999999991 ) ) ;
#84 = VERTEX_POINT ( 'NONE', #367 ) ;
#85 = CARTESIAN_POINT ( 'NONE',  ( -5.000000000000000888, 0.000000000000000000, 0.000000000000000000 ) ) ;
#86 = DIRECTION ( 'NONE',  ( 0.000000000000000000, 0.000000000000000000, 1.000000000000000000 ) ) ;
#87 = VERTEX_POINT ( 'NONE', #138 ) ;
#88 = EDGE_CURVE ( 'NONE', #394, #87, #12, .T. ) ;
#89 = CARTESIAN_POINT ( 'NONE',  ( -3.450922203707145197, 3.618167484233008935, 2.000000000000000000 ) ) ;
#90 = ORIENTED_EDGE ( 'NONE', *, *, #476, .T. ) ;
#91 = VECTOR ( 'NONE', #136, 1000.000000000000000 ) ;
#92 = ORIENTED_EDGE ( 'NONE', *, *, #476, .F. ) ;
#93 = CARTESIAN_POINT ( 'NONE',  ( 0.000000000000000000, 0.000000000000000000, -12.07024841829701600 ) ) ;
#94 = CARTESIAN_POINT ( 'NONE',  ( 0.000000000000000000, 0.000000000000000000, 1.000000000000000000 ) ) ;
#95 = CARTESIAN_POINT ( 'NONE',  ( 0.000000000000000000, 0.000000000000000000, 1.000000000000000000 ) ) ;
#96 = AXIS2_PLACEMENT_3D ( 'NONE', #95, #329, #442 ) ;
#97 = VECTOR ( 'NONE', #414, 1000.000000000000000 ) ;
#98 = ORIENTED_EDGE ( 'NONE', *, *, #222, .T. ) ;
#99 = CARTESIAN_POINT ( 'NONE',  ( 4.999999999999997335, 0.000000000000000000, -12.07024841829701600 ) ) ;
#100 = CARTESIAN_POINT ( 'NONE',  ( 0.000000000000000000, 0.000000000000000000, 1.000000000000000000 ) ) ;
#101 = ADVANCED_FACE ( 'NONE', ( #292 ), #439, .T. ) ;
#102 = VECTOR ( 'NONE', #181, 1000.000000000000000 ) ;
#103 = DIRECTION ( 'NONE',  ( 0.000000000000000000, 0.000000000000000000, 1.000000000000000000 ) ) ;
#104 = PRODUCT_DEFINITION_SHAPE ( 'NONE', 'NONE',  #115 ) ;
#105 = DIRECTION ( 'NONE',  ( -0.000000000000000000, -0.000000000000000000, -1.000000000000000000 ) ) ;
#106 = CYLINDRICAL_SURFACE ( 'NONE', #192, 5.000000000000000888 ) ;
#107 = EDGE_CURVE ( 'NONE', #398, #486, #261, .T. ) ;
#108 = DIRECTION ( 'NONE',  ( 0.000000000000000000, 0.000000000000000000, 1.000000000000000000 ) ) ;
#109 = ORIENTED_EDGE ( 'NONE', *, *, #157, .F. ) ;
#110 =( NAMED_UNIT ( * ) SI_UNIT ( $, .STERADIAN. ) SOLID_ANGLE_UNIT ( ) );
#111 = VECTOR ( 'NONE', #400, 1000.000000000000000 ) ;
#112 = ORIENTED_EDGE ( 'NONE', *, *, #157, .T. ) ;
#113 = CYLINDRICAL_SURFACE ( 'NONE', #125, 5.000000000000000888 ) ;
#114 = CARTESIAN_POINT ( 'NONE',  ( 0.000000000000000000, 0.000000000000000000, 0.000000000000000000 ) ) ;
#115 = PRODUCT_DEFINITION ( 'UNKNOWN', '', #233, #445 ) ;
#116 = ADVANCED_FACE ( 'NONE', ( #257 ), #405, .F. ) ;
#117 = DIRECTION ( 'NONE',  ( -0.000000000000000000, -0.000000000000000000, -1.000000000000000000 ) ) ;
#118 = DIRECTION ( 'NONE',  ( -0.000000000000000000, -0.000000000000000000, 1.000000000000000000 ) ) ;
#119 = VERTEX_POINT ( 'NONE', #20 ) ;
#120 = CARTESIAN_POINT ( 'NONE',  ( 5.000000000000001776, 0.000000000000000000, 1.000000000000000000 ) ) ;
#121 = DIRECTION ( 'NONE',  ( 1.000000000000000000, 0.000000000000000000, 0.000000000000000000 ) ) ;
#122 = VECTOR ( 'NONE', #291, 1000.000000000000000 ) ;
#123 = ORIENTED_EDGE ( 'NONE', *, *, #312, .F. ) ;
#124 = CIRCLE ( 'NONE', #179, 15.00000000000000178 ) ;
#125 = AXIS2_PLACEMENT_3D ( 'NONE', #420, #105, #24 ) ;
#126 = CARTESIAN_POINT ( 'NONE',  ( 3.450922203707140756, -3.618167484233013376, 2.000000000000000000 ) ) ;
#127 = EDGE_LOOP ( 'NONE', ( #417, #288, #98, #151 ) ) ;
#128 = DIRECTION ( 'NONE',  ( 1.000000000000000000, 0.000000000000000000, 0.000000000000000000 ) ) ;
#129 = FACE_OUTER_BOUND ( 'NONE', #494, .T. ) ;
#130 = ORIENTED_EDGE ( 'NONE', *, *, #473, .T. ) ;
#131 = ORIENTED_EDGE ( 'NONE', *, *, #159, .F. ) ;
#132 = AXIS2_PLACEMENT_3D ( 'NONE', #55, #368, #53 ) ;
#133 = AXIS2_PLACEMENT_3D ( 'NONE', #463, #320, #357 ) ;
#134 = DIRECTION ( 'NONE',  ( 1.000000000000000000, 0.000000000000000000, 0.000000000000000000 ) ) ;
#135 = ORIENTED_EDGE ( 'NONE', *, *, #408, .F. ) ;
#136 = DIRECTION ( 'NONE',  ( -0.000000000000000000, -0.000000000000000000, 1.000000000000000000 ) ) ;
#137 = UNCERTAINTY_MEASURE_WITH_UNIT (LENGTH_MEASURE( 1.000000000000000082E-05 ), #174, 'distance_accuracy_value', 'NONE');
#138 = CARTESIAN_POINT ( 'NONE',  ( 3.450922203707134095, -3.618167484233015596, 1.989999999999999991 ) ) ;
#139 = AXIS2_PLACEMENT_3D ( 'NONE', #94, #255, #143 ) ;
#140 = AXIS2_PLACEMENT_3D ( 'NONE', #67, #144, #22 ) ;
#141 = AXIS2_PLACEMENT_3D ( 'NONE', #156, #70, #499 ) ;
#142 = CARTESIAN_POINT ( 'NONE',  ( -3.450922203707147418, 3.618167484233003162, 0.000000000000000000 ) ) ;
#143 = DIRECTION ( 'NONE',  ( 1.000000000000000000, 0.000000000000000000, -0.000000000000000000 ) ) ;
#144 = DIRECTION ( 'NONE',  ( 0.000000000000000000, 0.000000000000000000, 1.000000000000000000 ) ) ;
#145 = EDGE_CURVE ( 'NONE', #429, #486, #187, .T. ) ;
#146 = CIRCLE ( 'NONE', #272, 5.000000000000000888 ) ;
#147 = DIRECTION ( 'NONE',  ( 1.000000000000000000, 0.000000000000000000, 0.000000000000000000 ) ) ;
#148 = EDGE_CURVE ( 'NONE', #119, #358, #158, .T. ) ;
#149 = CARTESIAN_POINT ( 'NONE',  ( 4.999999999999997335, 0.000000000000000000, 0.000000000000000000 ) ) ;
#150 = CARTESIAN_POINT ( 'NONE',  ( 0.000000000000000000, 0.000000000000000000, 0.000000000000000000 ) ) ;
#151 = ORIENTED_EDGE ( 'NONE', *, *, #297, .F. ) ;
#152 = DIRECTION ( 'NONE',  ( -0.000000000000000000, -0.000000000000000000, 1.000000000000000000 ) ) ;
#153 = APPLICATION_CONTEXT ( 'automotive_design' ) ;
#154 = LINE ( 'NONE', #277, #59 ) ;
#155 = ORIENTED_EDGE ( 'NONE', *, *, #29, .F. ) ;
#156 = CARTESIAN_POINT ( 'NONE',  ( 10.23372305427932893, 9.760681966354178840, -12.07024841829701600 ) ) ;
#157 = EDGE_CURVE ( 'NONE', #84, #358, #240, .T. ) ;
#158 = LINE ( 'NONE', #274, #79 ) ;
#159 = EDGE_CURVE ( 'NONE', #472, #464, #363, .T. ) ;
#160 = CARTESIAN_POINT ( 'NONE',  ( 3.450922203707134095, -3.618167484233015596, 0.000000000000000000 ) ) ;
#161 = DIRECTION ( 'NONE',  ( 0.000000000000000000, 0.000000000000000000, 1.000000000000000000 ) ) ;
#162 = CARTESIAN_POINT ( 'NONE',  ( 0.000000000000000000, 0.000000000000000000, 1.000000000000000000 ) ) ;
#163 = CARTESIAN_POINT ( 'NONE',  ( 3.450922203707140756, -3.618167484233013376, 1.994999999999999885 ) ) ;
#164 = ORIENTED_EDGE ( 'NONE', *, *, #359, .T. ) ;
#165 = EDGE_CURVE ( 'NONE', #42, #472, #243, .T. ) ;
#166 = PRODUCT_CONTEXT ( 'NONE', #153, 'mechanical' ) ;
#167 = LINE ( 'NONE', #428, #432 ) ;
#168 = ORIENTED_EDGE ( 'NONE', *, *, #382, .F. ) ;
#169 = VECTOR ( 'NONE', #340, 1000.000000000000000 ) ;
#170 = EDGE_CURVE ( 'NONE', #39, #119, #189, .T. ) ;
#171 = DIRECTION ( 'NONE',  ( 0.000000000000000000, -1.000000000000000000, 0.000000000000000000 ) ) ;
#172 = DIRECTION ( 'NONE',  ( 1.000000000000000000, -1.734723475976806503E-15, 0.000000000000000000 ) ) ;
#173 = EDGE_LOOP ( 'NONE', ( #370, #396, #68, #211 ) ) ;
#174 =( LENGTH_UNIT ( ) NAMED_UNIT ( * ) SI_UNIT ( .MILLI., .METRE. ) );
#175 = ORIENTED_EDGE ( 'NONE', *, *, #186, .F. ) ;
#176 = CARTESIAN_POINT ( 'NONE',  ( 5.000000000000001776, -5.590169943749472736, 1.000000000000000000 ) ) ;
#177 = EDGE_LOOP ( 'NONE', ( #90, #75, #123, #434 ) ) ;
#178 = ADVANCED_FACE ( 'NONE', ( #490 ), #229, .T. ) ;
#179 = AXIS2_PLACEMENT_3D ( 'NONE', #484, #71, #147 ) ;
#180 = AXIS2_PLACEMENT_3D ( 'NONE', #162, #450, #200 ) ;
#181 = DIRECTION ( 'NONE',  ( 0.000000000000000000, 1.000000000000000000, 0.000000000000000000 ) ) ;
#182 = DIRECTION ( 'NONE',  ( 1.000000000000000000, 0.000000000000000000, 0.000000000000000000 ) ) ;
#183 = EDGE_CURVE ( 'NONE', #284, #306, #154, .T. ) ;
#184 = CARTESIAN_POINT ( 'NONE',  ( -5.000000000000000888, 5.590169943749473624, 0.000000000000000000 ) ) ;
#185 = AXIS2_PLACEMENT_3D ( 'NONE', #381, #103, #461 ) ;
#186 = EDGE_CURVE ( 'NONE', #84, #398, #316, .T. ) ;
#187 = LINE ( 'NONE', #379, #190 ) ;
#188 = DIRECTION ( 'NONE',  ( 1.000000000000000000, 0.000000000000000000, 0.000000000000000000 ) ) ;
#189 = LINE ( 'NONE', #310, #169 ) ;
#190 = VECTOR ( 'NONE', #74, 1000.000000000000000 ) ;
#191 = CARTESIAN_POINT ( 'NONE',  ( 0.000000000000000000, 0.000000000000000000, 2.000000000000000000 ) ) ;
#192 = AXIS2_PLACEMENT_3D ( 'NONE', #237, #199, #493 ) ;
#193 = CARTESIAN_POINT ( 'NONE',  ( 0.000000000000000000, 0.000000000000000000, 1.989999999999999991 ) ) ;
#194 = ORIENTED_EDGE ( 'NONE', *, *, #435, .T. ) ;
#195 = CARTESIAN_POINT ( 'NONE',  ( 5.000000000000001776, 0.000000000000000000, -0.0009999999999999158867 ) ) ;
#196 = DIRECTION ( 'NONE',  ( -0.000000000000000000, -0.000000000000000000, 1.000000000000000000 ) ) ;
#197 = VERTEX_POINT ( 'NONE', #451 ) ;
#198 = CARTESIAN_POINT ( 'NONE',  ( -3.450922203707147418, 3.618167484233003162, -12.07024841829701600 ) ) ;
#199 = DIRECTION ( 'NONE',  ( -0.000000000000000000, -0.000000000000000000, -1.000000000000000000 ) ) ;
#200 = DIRECTION ( 'NONE',  ( 1.000000000000000000, 0.000000000000000000, 0.000000000000000000 ) ) ;
#201 = STYLED_ITEM ( 'NONE', ( #212 ), #366 ) ;
#202 = DIRECTION ( 'NONE',  ( 0.000000000000000000, 0.000000000000000000, 1.000000000000000000 ) ) ;
#203 = PLANE ( 'NONE',  #133 ) ;
#204 = MANIFOLD_SOLID_BREP ( 'Cut-Extrude3', #326 ) ;
#205 = VERTEX_POINT ( 'NONE', #64 ) ;
#206 = APPLICATION_PROTOCOL_DEFINITION ( 'draft international standard', 'automotive_design', 1998, #301 ) ;
#207 = FACE_OUTER_BOUND ( 'NONE', #173, .T. ) ;
#208 = VERTEX_POINT ( 'NONE', #32 ) ;
#209 = CARTESIAN_POINT ( 'NONE',  ( -3.450922203707145197, 3.618167484233006270, 1.989999999999999991 ) ) ;
#210 = CIRCLE ( 'NONE', #331, 5.000000000000000888 ) ;
#211 = ORIENTED_EDGE ( 'NONE', *, *, #58, .F. ) ;
#212 = PRESENTATION_STYLE_ASSIGNMENT (( #6 ) ) ;
#213 = ORIENTED_EDGE ( 'NONE', *, *, #45, .T. ) ;
#214 = LINE ( 'NONE', #85, #111 ) ;
#215 = EDGE_CURVE ( 'NONE', #87, #208, #495, .T. ) ;
#216 = UNCERTAINTY_MEASURE_WITH_UNIT (LENGTH_MEASURE( 1.000000000000000082E-05 ), #456, 'distance_accuracy_value', 'NONE');
#217 = EDGE_CURVE ( 'NONE', #306, #205, #232, .T. ) ;
#218 = ORIENTED_EDGE ( 'NONE', *, *, #408, .T. ) ;
#219 = CARTESIAN_POINT ( 'NONE',  ( 0.000000000000000000, 0.000000000000000000, 2.000000000000000000 ) ) ;
#220 = CYLINDRICAL_SURFACE ( 'NONE', #307, 7.500000000000000000 ) ;
#221 = ORIENTED_EDGE ( 'NONE', *, *, #215, .T. ) ;
#222 = EDGE_CURVE ( 'NONE', #284, #362, #124, .T. ) ;
#223 = DIRECTION ( 'NONE',  ( -0.000000000000000000, -0.000000000000000000, 1.000000000000000000 ) ) ;
#224 = CARTESIAN_POINT ( 'NONE',  ( 0.000000000000000000, 0.000000000000000000, 1.000000000000000000 ) ) ;
#225 = ADVANCED_FACE ( 'NONE', ( #302 ), #106, .T. ) ;
#226 = DIRECTION ( 'NONE',  ( 1.000000000000000000, 0.000000000000000000, 0.000000000000000000 ) ) ;
#227 = ORIENTED_EDGE ( 'NONE', *, *, #2, .F. ) ;
#228 = CARTESIAN_POINT ( 'NONE',  ( 5.000000000000000888, 6.123233995736767268E-16, 2.000000000000000000 ) ) ;
#229 = PLANE ( 'NONE',  #185 ) ;
#230 = ORIENTED_EDGE ( 'NONE', *, *, #481, .T. ) ;
#231 = CYLINDRICAL_SURFACE ( 'NONE', #443, 7.500000000000000000 ) ;
#232 = CIRCLE ( 'NONE', #140, 15.00000000000000178 ) ;
#233 = PRODUCT_DEFINITION_FORMATION_WITH_SPECIFIED_SOURCE ( 'ANY', '', #15, .NOT_KNOWN. ) ;
#234 = DIRECTION ( 'NONE',  ( 1.000000000000000000, 0.000000000000000000, 0.000000000000000000 ) ) ;
#235 = ORIENTED_EDGE ( 'NONE', *, *, #482, .T. ) ;
#236 = CARTESIAN_POINT ( 'NONE',  ( 0.000000000000000000, 0.000000000000000000, 0.000000000000000000 ) ) ;
#237 = CARTESIAN_POINT ( 'NONE',  ( 0.000000000000000000, 0.000000000000000000, 2.000000000000000000 ) ) ;
#238 = EDGE_LOOP ( 'NONE', ( #44, #321, #252, #385 ) ) ;
#239 = DIRECTION ( 'NONE',  ( -1.000000000000000000, 0.000000000000000000, 0.000000000000000000 ) ) ;
#240 = LINE ( 'NONE', #448, #258 ) ;
#241 = ORIENTED_EDGE ( 'NONE', *, *, #47, .T. ) ;
#242 = FACE_OUTER_BOUND ( 'NONE', #238, .T. ) ;
#243 = CIRCLE ( 'NONE', #441, 4.999999999999997335 ) ;
#244 = EDGE_LOOP ( 'NONE', ( #164, #422, #7 ) ) ;
#245 = DIRECTION ( 'NONE',  ( 0.000000000000000000, 0.000000000000000000, 1.000000000000000000 ) ) ;
#246 = DIRECTION ( 'NONE',  ( -0.000000000000000000, -0.000000000000000000, -1.000000000000000000 ) ) ;
#247 = ORIENTED_EDGE ( 'NONE', *, *, #47, .F. ) ;
#248 = DIRECTION ( 'NONE',  ( 0.000000000000000000, 0.000000000000000000, 1.000000000000000000 ) ) ;
#249 = EDGE_LOOP ( 'NONE', ( #51, #221, #303 ) ) ;
#250 = LINE ( 'NONE', #163, #364 ) ;
#251 = MECHANICAL_DESIGN_GEOMETRIC_PRESENTATION_REPRESENTATION (  '', ( #201 ), #308 ) ;
#252 = ORIENTED_EDGE ( 'NONE', *, *, #88, .F. ) ;
#253 = EDGE_CURVE ( 'NONE', #464, #42, #46, .T. ) ;
#254 = ORIENTED_EDGE ( 'NONE', *, *, #2, .T. ) ;
#255 = DIRECTION ( 'NONE',  ( 0.000000000000000000, 0.000000000000000000, 1.000000000000000000 ) ) ;
#256 = EDGE_CURVE ( 'NONE', #390, #306, #259, .T. ) ;
#257 = FACE_OUTER_BOUND ( 'NONE', #10, .T. ) ;
#258 = VECTOR ( 'NONE', #196, 1000.000000000000000 ) ;
#259 = CIRCLE ( 'NONE', #344, 5.000000000000000888 ) ;
#260 = CARTESIAN_POINT ( 'NONE',  ( 0.000000000000000000, 0.000000000000000000, 0.000000000000000000 ) ) ;
#261 = LINE ( 'NONE', #407, #369 ) ;
#262 = EDGE_LOOP ( 'NONE', ( #112, #468, #403, #247, #5 ) ) ;
#263 = ADVANCED_FACE ( 'NONE', ( #129 ), #203, .F. ) ;
#264 = SURFACE_SIDE_STYLE ('',( #34 ) ) ;
#265 = DIRECTION ( 'NONE',  ( -0.000000000000000000, -0.000000000000000000, -1.000000000000000000 ) ) ;
#266 = CARTESIAN_POINT ( 'NONE',  ( 10.23372305427932893, 9.760681966354178840, 0.000000000000000000 ) ) ;
#267 = ORIENTED_EDGE ( 'NONE', *, *, #473, .F. ) ;
#268 = CARTESIAN_POINT ( 'NONE',  ( 5.000000000000000888, 6.123233995736767268E-16, 1.989999999999999991 ) ) ;
#269 =( NAMED_UNIT ( * ) PLANE_ANGLE_UNIT ( ) SI_UNIT ( $, .RADIAN. ) );
#270 = EDGE_LOOP ( 'NONE', ( #130, #241, #92, #399 ) ) ;
#271 = ADVANCED_FACE ( 'NONE', ( #48 ), #1, .T. ) ;
#272 = AXIS2_PLACEMENT_3D ( 'NONE', #469, #317, #121 ) ;
#273 = DIRECTION ( 'NONE',  ( -0.000000000000000000, 0.000000000000000000, 1.000000000000000000 ) ) ;
#274 = CARTESIAN_POINT ( 'NONE',  ( -5.000000000000000888, 0.000000000000000000, 1.000000000000000000 ) ) ;
#275 = ORIENTED_EDGE ( 'NONE', *, *, #45, .F. ) ;
#276 = FACE_OUTER_BOUND ( 'NONE', #262, .T. ) ;
#277 = CARTESIAN_POINT ( 'NONE',  ( -3.450922203707145197, 3.618167484233008935, 1.994999999999999885 ) ) ;
#278 = ORIENTED_EDGE ( 'NONE', *, *, #256, .F. ) ;
#279 = LINE ( 'NONE', #339, #300 ) ;
#280 = CARTESIAN_POINT ( 'NONE',  ( 0.000000000000000000, 0.000000000000000000, 1.989999999999999991 ) ) ;
#281 = FACE_OUTER_BOUND ( 'NONE', #127, .T. ) ;
#282 = ORIENTED_EDGE ( 'NONE', *, *, #253, .T. ) ;
#283 = LINE ( 'NONE', #228, #97 ) ;
#284 = VERTEX_POINT ( 'NONE', #89 ) ;
#285 = CARTESIAN_POINT ( 'NONE',  ( 0.000000000000000000, 0.000000000000000000, -12.07024841829701600 ) ) ;
#286 = ORIENTED_EDGE ( 'NONE', *, *, #29, .T. ) ;
#287 = PRESENTATION_LAYER_ASSIGNMENT (  '', '', ( #201 ) ) ;
#288 = ORIENTED_EDGE ( 'NONE', *, *, #183, .F. ) ;
#289 =( LENGTH_UNIT ( ) NAMED_UNIT ( * ) SI_UNIT ( .MILLI., .METRE. ) );
#290 = DIRECTION ( 'NONE',  ( 0.000000000000000000, 0.000000000000000000, 1.000000000000000000 ) ) ;
#291 = DIRECTION ( 'NONE',  ( 0.000000000000000000, 0.000000000000000000, 1.000000000000000000 ) ) ;
#292 = FACE_OUTER_BOUND ( 'NONE', #324, .T. ) ;
#293 = AXIS2_PLACEMENT_3D ( 'NONE', #193, #488, #226 ) ;
#294 = AXIS2_PLACEMENT_3D ( 'NONE', #93, #40, #134 ) ;
#295 = ORIENTED_EDGE ( 'NONE', *, *, #427, .T. ) ;
#296 = ORIENTED_EDGE ( 'NONE', *, *, #186, .T. ) ;
#297 = EDGE_CURVE ( 'NONE', #205, #362, #250, .T. ) ;
#298 = DIRECTION ( 'NONE',  ( -0.000000000000000000, -0.000000000000000000, -1.000000000000000000 ) ) ;
#299 = AXIS2_PLACEMENT_3D ( 'NONE', #260, #406, #56 ) ;
#300 = VECTOR ( 'NONE', #152, 1000.000000000000000 ) ;
#301 = APPLICATION_CONTEXT ( 'automotive_design' ) ;
#302 = FACE_OUTER_BOUND ( 'NONE', #319, .T. ) ;
#303 = ORIENTED_EDGE ( 'NONE', *, *, #58, .T. ) ;
#304 = EDGE_CURVE ( 'NONE', #464, #87, #167, .T. ) ;
#305 = CARTESIAN_POINT ( 'NONE',  ( 5.000000000000001776, 5.590169943749472736, 1.000000000000000000 ) ) ;
#306 = VERTEX_POINT ( 'NONE', #209 ) ;
#307 = AXIS2_PLACEMENT_3D ( 'NONE', #100, #61, #14 ) ;
#308 =( GEOMETRIC_REPRESENTATION_CONTEXT ( 3 ) GLOBAL_UNCERTAINTY_ASSIGNED_CONTEXT ( ( #137 ) ) GLOBAL_UNIT_ASSIGNED_CONTEXT ( ( #174, #350, #110 ) ) REPRESENTATION_CONTEXT ( 'NONE', 'WORKASPACE' ) );
#309 =( GEOMETRIC_REPRESENTATION_CONTEXT ( 3 ) GLOBAL_UNCERTAINTY_ASSIGNED_CONTEXT ( ( #372 ) ) GLOBAL_UNIT_ASSIGNED_CONTEXT ( ( #289, #437, #322 ) ) REPRESENTATION_CONTEXT ( 'NONE', 'WORKASPACE' ) );
#310 = CARTESIAN_POINT ( 'NONE',  ( -5.000000000000000888, 0.000000000000000000, 1.000000000000000000 ) ) ;
#311 = DIRECTION ( 'NONE',  ( 1.000000000000000000, 0.000000000000000000, -0.000000000000000000 ) ) ;
#312 = EDGE_CURVE ( 'NONE', #429, #119, #146, .T. ) ;
#313 = DIRECTION ( 'NONE',  ( -0.000000000000000000, -0.000000000000000000, 1.000000000000000000 ) ) ;
#314 = ORIENTED_EDGE ( 'NONE', *, *, #165, .T. ) ;
#315 = CARTESIAN_POINT ( 'NONE',  ( 0.000000000000000000, 0.000000000000000000, 0.000000000000000000 ) ) ;
#316 = CIRCLE ( 'NONE', #355, 7.500000000000000000 ) ;
#317 = DIRECTION ( 'NONE',  ( 0.000000000000000000, 0.000000000000000000, 1.000000000000000000 ) ) ;
#318 = AXIS2_PLACEMENT_3D ( 'NONE', #195, #341, #273 ) ;
#319 = EDGE_LOOP ( 'NONE', ( #278, #478, #27, #36, #135, #474 ) ) ;
#320 = DIRECTION ( 'NONE',  ( 0.000000000000000000, 0.000000000000000000, 1.000000000000000000 ) ) ;
#321 = ORIENTED_EDGE ( 'NONE', *, *, #304, .T. ) ;
#322 =( NAMED_UNIT ( * ) SI_UNIT ( $, .STERADIAN. ) SOLID_ANGLE_UNIT ( ) );
#323 = ADVANCED_FACE ( 'NONE', ( #281 ), #352, .F. ) ;
#324 = EDGE_LOOP ( 'NONE', ( #275, #361, #254, #72 ) ) ;
#325 = CYLINDRICAL_SURFACE ( 'NONE', #294, 4.999999999999997335 ) ;
#326 = CLOSED_SHELL ( 'NONE', ( #225, #9, #101, #263, #17, #402, #401, #178, #416, #436, #459, #323 ) ) ;
#327 = ORIENTED_EDGE ( 'NONE', *, *, #145, .T. ) ;
#328 = DIRECTION ( 'NONE',  ( 0.000000000000000000, 0.000000000000000000, 1.000000000000000000 ) ) ;
#329 = DIRECTION ( 'NONE',  ( 0.000000000000000000, 0.000000000000000000, 1.000000000000000000 ) ) ;
#330 = CARTESIAN_POINT ( 'NONE',  ( -5.000000000000000888, 5.590169943749473624, -0.0009999999999999158867 ) ) ;
#331 = AXIS2_PLACEMENT_3D ( 'NONE', #280, #421, #430 ) ;
#332 = ADVANCED_FACE ( 'NONE', ( #207 ), #4, .T. ) ;
#333 = DIRECTION ( 'NONE',  ( 1.000000000000000000, 0.000000000000000000, 0.000000000000000000 ) ) ;
#334 = CARTESIAN_POINT ( 'NONE',  ( 0.000000000000000000, 0.000000000000000000, 1.989999999999999991 ) ) ;
#335 = ORIENTED_EDGE ( 'NONE', *, *, #359, .F. ) ;
#336 = LINE ( 'NONE', #349, #82 ) ;
#337 = SURFACE_STYLE_USAGE ( .BOTH. , #264 ) ;
#338 = EDGE_LOOP ( 'NONE', ( #168, #335, #353, #80, #194, #213 ) ) ;
#339 = CARTESIAN_POINT ( 'NONE',  ( 5.000000000000001776, 5.590169943749472736, -0.0009999999999999158867 ) ) ;
#340 = DIRECTION ( 'NONE',  ( 0.000000000000000000, -1.000000000000000000, 0.000000000000000000 ) ) ;
#341 = DIRECTION ( 'NONE',  ( -1.000000000000000000, 0.000000000000000000, -0.000000000000000000 ) ) ;
#342 = PRESENTATION_STYLE_ASSIGNMENT (( #337 ) ) ;
#343 = CIRCLE ( 'NONE', #132, 7.500000000000000000 ) ;
#344 = AXIS2_PLACEMENT_3D ( 'NONE', #83, #248, #424 ) ;
#345 = CYLINDRICAL_SURFACE ( 'NONE', #141, 15.00000000000000533 ) ;
#346 = AXIS2_PLACEMENT_3D ( 'NONE', #76, #415, #311 ) ;
#347 = CARTESIAN_POINT ( 'NONE',  ( 0.000000000000000000, 0.000000000000000000, 0.000000000000000000 ) ) ;
#348 = EDGE_LOOP ( 'NONE', ( #470, #218, #425 ) ) ;
#349 = CARTESIAN_POINT ( 'NONE',  ( -5.000000000000000888, 0.000000000000000000, 2.000000000000000000 ) ) ;
#350 =( NAMED_UNIT ( * ) PLANE_ANGLE_UNIT ( ) SI_UNIT ( $, .RADIAN. ) );
#351 = ORIENTED_EDGE ( 'NONE', *, *, #215, .F. ) ;
#352 = CYLINDRICAL_SURFACE ( 'NONE', #66, 15.00000000000000178 ) ;
#353 = ORIENTED_EDGE ( 'NONE', *, *, #297, .T. ) ;
#354 = CIRCLE ( 'NONE', #404, 5.000000000000000888 ) ;
#355 = AXIS2_PLACEMENT_3D ( 'NONE', #114, #108, #412 ) ;
#356 = CIRCLE ( 'NONE', #433, 5.000000000000000888 ) ;
#357 = DIRECTION ( 'NONE',  ( 1.000000000000000000, 0.000000000000000000, -0.000000000000000000 ) ) ;
#358 = VERTEX_POINT ( 'NONE', #462 ) ;
#359 = EDGE_CURVE ( 'NONE', #205, #390, #210, .T. ) ;
#360 = DIRECTION ( 'NONE',  ( 1.000000000000000000, 0.000000000000000000, 0.000000000000000000 ) ) ;
#361 = ORIENTED_EDGE ( 'NONE', *, *, #148, .T. ) ;
#362 = VERTEX_POINT ( 'NONE', #126 ) ;
#363 = CIRCLE ( 'NONE', #37, 4.999999999999997335 ) ;
#364 = VECTOR ( 'NONE', #313, 1000.000000000000000 ) ;
#365 = PLANE ( 'NONE',  #139 ) ;
#366 = MANIFOLD_SOLID_BREP ( 'Boss-Extrude3', #440 ) ;
#367 = CARTESIAN_POINT ( 'NONE',  ( -5.000000000000000888, -5.590169943749473624, 0.000000000000000000 ) ) ;
#368 = DIRECTION ( 'NONE',  ( 0.000000000000000000, 0.000000000000000000, 1.000000000000000000 ) ) ;
#369 = VECTOR ( 'NONE', #223, 1000.000000000000000 ) ;
#370 = ORIENTED_EDGE ( 'NONE', *, *, #77, .F. ) ;
#371 = VECTOR ( 'NONE', #38, 1000.000000000000000 ) ;
#372 = UNCERTAINTY_MEASURE_WITH_UNIT (LENGTH_MEASURE( 1.000000000000000082E-05 ), #289, 'distance_accuracy_value', 'NONE');
#373 = LINE ( 'NONE', #330, #91 ) ;
#374 = DIRECTION ( 'NONE',  ( 1.000000000000000000, 0.000000000000000000, 0.000000000000000000 ) ) ;
#375 = CARTESIAN_POINT ( 'NONE',  ( 5.000000000000001776, 0.000000000000000000, 1.000000000000000000 ) ) ;
#376 = DIRECTION ( 'NONE',  ( -0.000000000000000000, -0.000000000000000000, -1.000000000000000000 ) ) ;
#377 =( GEOMETRIC_REPRESENTATION_CONTEXT ( 3 ) GLOBAL_UNCERTAINTY_ASSIGNED_CONTEXT ( ( #216 ) ) GLOBAL_UNIT_ASSIGNED_CONTEXT ( ( #456, #269, #25 ) ) REPRESENTATION_CONTEXT ( 'NONE', 'WORKASPACE' ) );
#378 = CARTESIAN_POINT ( 'NONE',  ( 0.000000000000000000, 0.000000000000000000, 1.000000000000000000 ) ) ;
#379 = CARTESIAN_POINT ( 'NONE',  ( 5.000000000000001776, 0.000000000000000000, 1.000000000000000000 ) ) ;
#380 = DIRECTION ( 'NONE',  ( 1.000000000000000000, 0.000000000000000000, 0.000000000000000000 ) ) ;
#381 = CARTESIAN_POINT ( 'NONE',  ( 0.000000000000000000, 0.000000000000000000, 2.000000000000000000 ) ) ;
#382 = EDGE_CURVE ( 'NONE', #390, #429, #283, .T. ) ;
#383 = DIRECTION ( 'NONE',  ( 1.000000000000000000, 0.000000000000000000, 0.000000000000000000 ) ) ;
#384 = FILL_AREA_STYLE ('',( #419 ) ) ;
#385 = ORIENTED_EDGE ( 'NONE', *, *, #393, .F. ) ;
#386 = STYLED_ITEM ( 'NONE', ( #342 ), #204 ) ;
#387 = CARTESIAN_POINT ( 'NONE',  ( -5.000000000000000888, 0.000000000000000000, 2.000000000000000000 ) ) ;
#388 = CIRCLE ( 'NONE', #180, 7.500000000000000000 ) ;
#389 = CARTESIAN_POINT ( 'NONE',  ( 5.116861527139664467, 4.880340983177089420, 1.989999999999999991 ) ) ;
#390 = VERTEX_POINT ( 'NONE', #268 ) ;
#391 = LINE ( 'NONE', #120, #26 ) ;
#392 = DIRECTION ( 'NONE',  ( 1.000000000000000000, 0.000000000000000000, -0.000000000000000000 ) ) ;
#393 = EDGE_CURVE ( 'NONE', #42, #394, #31, .T. ) ;
#394 = VERTEX_POINT ( 'NONE', #460 ) ;
#395 = SURFACE_STYLE_FILL_AREA ( #397 ) ;
#396 = ORIENTED_EDGE ( 'NONE', *, *, #165, .F. ) ;
#397 = FILL_AREA_STYLE ('',( #78 ) ) ;
#398 = VERTEX_POINT ( 'NONE', #411 ) ;
#399 = ORIENTED_EDGE ( 'NONE', *, *, #427, .F. ) ;
#400 = DIRECTION ( 'NONE',  ( 0.000000000000000000, 1.000000000000000000, 0.000000000000000000 ) ) ;
#401 = ADVANCED_FACE ( 'NONE', ( #28 ), #113, .T. ) ;
#402 = ADVANCED_FACE ( 'NONE', ( #65 ), #231, .T. ) ;
#403 = ORIENTED_EDGE ( 'NONE', *, *, #170, .F. ) ;
#404 = AXIS2_PLACEMENT_3D ( 'NONE', #219, #18, #333 ) ;
#405 = PLANE ( 'NONE',  #299 ) ;
#406 = DIRECTION ( 'NONE',  ( 0.000000000000000000, 0.000000000000000000, 1.000000000000000000 ) ) ;
#407 = CARTESIAN_POINT ( 'NONE',  ( 5.000000000000001776, -5.590169943749472736, -0.0009999999999999158867 ) ) ;
#408 = EDGE_CURVE ( 'NONE', #284, #479, #356, .T. ) ;
#409 = CARTESIAN_POINT ( 'NONE',  ( 5.000000000000001776, 0.000000000000000000, 0.000000000000000000 ) ) ;
#410 = AXIS2_PLACEMENT_3D ( 'NONE', #285, #467, #360 ) ;
#411 = CARTESIAN_POINT ( 'NONE',  ( 5.000000000000001776, -5.590169943749472736, 0.000000000000000000 ) ) ;
#412 = DIRECTION ( 'NONE',  ( 1.000000000000000000, 0.000000000000000000, 0.000000000000000000 ) ) ;
#413 = ORIENTED_EDGE ( 'NONE', *, *, #304, .F. ) ;
#414 = DIRECTION ( 'NONE',  ( -0.000000000000000000, -0.000000000000000000, -1.000000000000000000 ) ) ;
#415 = DIRECTION ( 'NONE',  ( 0.000000000000000000, 0.000000000000000000, 1.000000000000000000 ) ) ;
#416 = ADVANCED_FACE ( 'NONE', ( #489 ), #63, .F. ) ;
#417 = ORIENTED_EDGE ( 'NONE', *, *, #217, .F. ) ;
#418 = FACE_OUTER_BOUND ( 'NONE', #244, .T. ) ;
#419 = FILL_AREA_STYLE_COLOUR ( '', #458 ) ;
#420 = CARTESIAN_POINT ( 'NONE',  ( 0.000000000000000000, 0.000000000000000000, 2.000000000000000000 ) ) ;
#421 = DIRECTION ( 'NONE',  ( 0.000000000000000000, 0.000000000000000000, 1.000000000000000000 ) ) ;
#422 = ORIENTED_EDGE ( 'NONE', *, *, #256, .T. ) ;
#423 = AXIS2_PLACEMENT_3D ( 'NONE', #480, #290, #57 ) ;
#424 = DIRECTION ( 'NONE',  ( 1.000000000000000000, 0.000000000000000000, 0.000000000000000000 ) ) ;
#425 = ORIENTED_EDGE ( 'NONE', *, *, #8, .T. ) ;
#426 = SHAPE_DEFINITION_REPRESENTATION ( #104, #69 ) ;
#427 = EDGE_CURVE ( 'NONE', #197, #457, #279, .T. ) ;
#428 = CARTESIAN_POINT ( 'NONE',  ( 3.450922203707134095, -3.618167484233015596, -12.07024841829701600 ) ) ;
#429 = VERTEX_POINT ( 'NONE', #375 ) ;
#430 = DIRECTION ( 'NONE',  ( 1.000000000000000000, 0.000000000000000000, 0.000000000000000000 ) ) ;
#431 = ORIENTED_EDGE ( 'NONE', *, *, #107, .T. ) ;
#432 = VECTOR ( 'NONE', #86, 1000.000000000000000 ) ;
#433 = AXIS2_PLACEMENT_3D ( 'NONE', #191, #202, #380 ) ;
#434 = ORIENTED_EDGE ( 'NONE', *, *, #482, .F. ) ;
#435 = EDGE_CURVE ( 'NONE', #479, #119, #336, .T. ) ;
#436 = ADVANCED_FACE ( 'NONE', ( #276 ), #487, .T. ) ;
#437 =( NAMED_UNIT ( * ) PLANE_ANGLE_UNIT ( ) SI_UNIT ( $, .RADIAN. ) );
#438 = ORIENTED_EDGE ( 'NONE', *, *, #107, .F. ) ;
#439 = PLANE ( 'NONE',  #96 ) ;
#440 = CLOSED_SHELL ( 'NONE', ( #491, #471, #332, #271, #116 ) ) ;
#441 = AXIS2_PLACEMENT_3D ( 'NONE', #347, #298, #234 ) ;
#442 = DIRECTION ( 'NONE',  ( 1.000000000000000000, 0.000000000000000000, -0.000000000000000000 ) ) ;
#443 = AXIS2_PLACEMENT_3D ( 'NONE', #378, #117, #239 ) ;
#444 = FACE_OUTER_BOUND ( 'NONE', #177, .T. ) ;
#445 = PRODUCT_DEFINITION_CONTEXT ( 'detailed design', #301, 'design' ) ;
#446 = FACE_OUTER_BOUND ( 'NONE', #452, .T. ) ;
#447 = AXIS2_PLACEMENT_3D ( 'NONE', #334, #21, #188 ) ;
#448 = CARTESIAN_POINT ( 'NONE',  ( -5.000000000000000888, -5.590169943749473624, -0.0009999999999999158867 ) ) ;
#449 = AXIS2_PLACEMENT_3D ( 'NONE', #266, #246, #172 ) ;
#450 = DIRECTION ( 'NONE',  ( 0.000000000000000000, 0.000000000000000000, 1.000000000000000000 ) ) ;
#451 = CARTESIAN_POINT ( 'NONE',  ( 5.000000000000001776, 5.590169943749472736, 0.000000000000000000 ) ) ;
#452 = EDGE_LOOP ( 'NONE', ( #109, #296, #431, #227 ) ) ;
#453 = DIRECTION ( 'NONE',  ( 0.000000000000000000, 0.000000000000000000, -1.000000000000000000 ) ) ;
#454 = PLANE ( 'NONE',  #346 ) ;
#455 = PRODUCT_RELATED_PRODUCT_CATEGORY ( 'part', '', ( #15 ) ) ;
#456 =( LENGTH_UNIT ( ) NAMED_UNIT ( * ) SI_UNIT ( .MILLI., .METRE. ) );
#457 = VERTEX_POINT ( 'NONE', #305 ) ;
#458 = COLOUR_RGB ( '',0.7921568627450980005, 0.8196078431372548767, 0.9333333333333333481 ) ;
#459 = ADVANCED_FACE ( 'NONE', ( #418 ), #454, .T. ) ;
#460 = CARTESIAN_POINT ( 'NONE',  ( -3.450922203707147418, 3.618167484233003162, 1.989999999999999991 ) ) ;
#461 = DIRECTION ( 'NONE',  ( 1.000000000000000000, 0.000000000000000000, -0.000000000000000000 ) ) ;
#462 = CARTESIAN_POINT ( 'NONE',  ( -5.000000000000000888, -5.590169943749473624, 1.000000000000000000 ) ) ;
#463 = CARTESIAN_POINT ( 'NONE',  ( 0.000000000000000000, 0.000000000000000000, 0.000000000000000000 ) ) ;
#464 = VERTEX_POINT ( 'NONE', #160 ) ;
#465 = PRESENTATION_LAYER_ASSIGNMENT (  '', '', ( #386 ) ) ;
#466 = AXIS2_PLACEMENT_3D ( 'NONE', #236, #73, #383 ) ;
#467 = DIRECTION ( 'NONE',  ( 0.000000000000000000, 0.000000000000000000, 1.000000000000000000 ) ) ;
#468 = ORIENTED_EDGE ( 'NONE', *, *, #148, .F. ) ;
#469 = CARTESIAN_POINT ( 'NONE',  ( 0.000000000000000000, 0.000000000000000000, 1.000000000000000000 ) ) ;
#470 = ORIENTED_EDGE ( 'NONE', *, *, #222, .F. ) ;
#471 = ADVANCED_FACE ( 'NONE', ( #242 ), #345, .T. ) ;
#472 = VERTEX_POINT ( 'NONE', #149 ) ;
#473 = EDGE_CURVE ( 'NONE', #197, #11, #60, .T. ) ;
#474 = ORIENTED_EDGE ( 'NONE', *, *, #183, .T. ) ;
#475 = LINE ( 'NONE', #409, #102 ) ;
#476 = EDGE_CURVE ( 'NONE', #457, #39, #388, .T. ) ;
#477 = CARTESIAN_POINT ( 'NONE',  ( -5.000000000000000888, 5.590169943749473624, 1.000000000000000000 ) ) ;
#478 = ORIENTED_EDGE ( 'NONE', *, *, #382, .T. ) ;
#479 = VERTEX_POINT ( 'NONE', #387 ) ;
#480 = CARTESIAN_POINT ( 'NONE',  ( 10.23372305427932893, 9.760681966354178840, 1.989999999999999991 ) ) ;
#481 = EDGE_CURVE ( 'NONE', #84, #11, #214, .T. ) ;
#482 = EDGE_CURVE ( 'NONE', #457, #429, #391, .T. ) ;
#483 = CIRCLE ( 'NONE', #447, 4.999999999999997335 ) ;
#484 = CARTESIAN_POINT ( 'NONE',  ( 10.23372305427932893, 9.760681966354178840, 2.000000000000000000 ) ) ;
#485 = AXIS2_PLACEMENT_3D ( 'NONE', #492, #497, #33 ) ;
#486 = VERTEX_POINT ( 'NONE', #176 ) ;
#487 = PLANE ( 'NONE',  #485 ) ;
#488 = DIRECTION ( 'NONE',  ( 0.000000000000000000, 0.000000000000000000, 1.000000000000000000 ) ) ;
#489 = FACE_OUTER_BOUND ( 'NONE', #62, .T. ) ;
#490 = FACE_OUTER_BOUND ( 'NONE', #348, .T. ) ;
#491 = ADVANCED_FACE ( 'NONE', ( #52 ), #325, .T. ) ;
#492 = CARTESIAN_POINT ( 'NONE',  ( -5.000000000000000888, 0.000000000000000000, -0.0009999999999999158867 ) ) ;
#493 = DIRECTION ( 'NONE',  ( -1.000000000000000000, 0.000000000000000000, 0.000000000000000000 ) ) ;
#494 = EDGE_LOOP ( 'NONE', ( #175, #230, #267, #155 ) ) ;
#495 = CIRCLE ( 'NONE', #293, 4.999999999999997335 ) ;
#496 = AXIS2_PLACEMENT_3D ( 'NONE', #315, #245, #128 ) ;
#497 = DIRECTION ( 'NONE',  ( -1.000000000000000000, 0.000000000000000000, -0.000000000000000000 ) ) ;
#498 = CARTESIAN_POINT ( 'NONE',  ( 10.23372305427932893, 9.760681966354178840, 1.989999999999999991 ) ) ;
#499 = DIRECTION ( 'NONE',  ( 1.000000000000000000, 0.000000000000000000, 0.000000000000000000 ) ) ;
ENDSEC;
END-ISO-10303-21;
